<svg width="25" height="24" viewBox="0 0 25 24" fill="none" xmlns="http://www.w3.org/2000/svg">
<path d="M8.5 12C8.5 11.7239 8.72386 11.5 9 11.5H12V8.5C12 8.22386 12.2239 8 12.5 8C12.7761 8 13 8.22386 13 8.5V11.5H16C16.2761 11.5 16.5 11.7239 16.5 12C16.5 12.2761 16.2761 12.5 16 12.5H13V15.5C13 15.7761 12.7761 16 12.5 16C12.2239 16 12 15.7761 12 15.5V12.5H9C8.72386 12.5 8.5 12.2761 8.5 12ZM12.5 20C16.9183 20 20.5 16.4183 20.5 12C20.5 7.58172 16.9183 4 12.5 4C8.08172 4 4.5 7.58172 4.5 12C4.5 16.4183 8.08172 20 12.5 20ZM12.5 19C8.63401 19 5.5 15.866 5.5 12C5.5 8.13401 8.63401 5 12.5 5C16.366 5 19.5 8.13401 19.5 12C19.5 15.866 16.366 19 12.5 19Z" fill="#2E3EE5"/>
</svg>
