<svg width="80" height="80" viewBox="0 0 80 80" fill="none" xmlns="http://www.w3.org/2000/svg">
<path d="M34.192 11.6666C31.6196 11.6666 29.2494 13.0613 28.0001 15.31L25.8575 19.1666H19.5833C14.2906 19.1666 10 23.4572 10 28.75V57.0833C10 62.376 14.2906 66.6666 19.5833 66.6666H38.3272C37.7737 65.3394 37.3485 63.9454 37.0669 62.5H19.5833C16.5918 62.5 14.1667 60.0748 14.1667 57.0833V28.75C14.1667 25.7584 16.5918 23.3333 19.5833 23.3333H28.3092L31.6424 17.3335C32.1568 16.4076 33.1328 15.8333 34.192 15.8333H45.808C46.8672 15.8333 47.8432 16.4076 48.3576 17.3335L51.6908 23.3333H60.4167C63.4082 23.3333 65.8333 25.7584 65.8333 28.75V37.9998C67.3039 38.5424 68.6994 39.24 70 40.0727V28.75C70 23.4572 65.7094 19.1666 60.4167 19.1666H54.1425L51.9999 15.31C50.7506 13.0613 48.3804 11.6666 45.808 11.6666H34.192ZM40 28.3333C45.8796 28.3333 50.8704 32.139 52.6433 37.4215C51.2851 37.7902 49.98 38.2876 48.7418 38.8999C47.5685 35.1895 44.0984 32.5 40 32.5C34.9374 32.5 30.8333 36.604 30.8333 41.6666C30.8333 46.0692 33.937 49.7468 38.0757 50.631C37.5859 51.9184 37.2154 53.2645 36.9775 54.6559C31.0697 53.2867 26.6667 47.9908 26.6667 41.6666C26.6667 34.3028 32.6362 28.3333 40 28.3333ZM76.6667 58.3333C76.6667 68.4585 68.4586 76.6666 58.3333 76.6666C48.2081 76.6666 40 68.4585 40 58.3333C40 48.2081 48.2081 40 58.3333 40C68.4586 40 76.6667 48.2081 76.6667 58.3333ZM60 48.3333C60 47.4128 59.2538 46.6666 58.3333 46.6666C57.4129 46.6666 56.6667 47.4128 56.6667 48.3333V56.6666H48.3333C47.4129 56.6666 46.6667 57.4128 46.6667 58.3333C46.6667 59.2538 47.4129 60 48.3333 60H56.6667V68.3333C56.6667 69.2538 57.4129 70 58.3333 70C59.2538 70 60 69.2538 60 68.3333V60H68.3333C69.2538 60 70 59.2538 70 58.3333C70 57.4128 69.2538 56.6666 68.3333 56.6666H60V48.3333Z" fill="#464B80"/>
</svg>
