<svg width="16" height="16" viewBox="0 0 16 16" fill="none" xmlns="http://www.w3.org/2000/svg">
<path d="M2 0C0.895431 0 0 0.89543 0 2V5.67133C0.285117 5.31899 0.622361 5.01056 1 4.75777V2C1 1.44772 1.44772 1 2 1H14C14.5523 1 15 1.44772 15 2V10C15 10.5523 14.5523 11 14 11H7.24223C7.16639 11.1133 7.08554 11.223 7 11.3287V12H14C15.1046 12 16 11.1046 16 10V2C16 0.89543 15.1046 0 14 0H2ZM3 3.5C3 3.22386 3.22386 3 3.5 3H12.5C12.7761 3 13 3.22386 13 3.5C13 3.77614 12.7761 4 12.5 4H3.5C3.22386 4 3 3.77614 3 3.5ZM3.5 12C1.567 12 0 10.433 0 8.5C0 6.567 1.567 5 3.5 5C5.433 5 7 6.567 7 8.5C7 10.433 5.433 12 3.5 12ZM1 12.2422C1.71505 12.7209 2.57493 13 3.5 13C4.42507 13 5.28495 12.7209 6 12.2422V15C6 15.412 5.52962 15.6472 5.2 15.4L3.8 14.35C3.62222 14.2167 3.37778 14.2167 3.2 14.35L1.8 15.4C1.47038 15.6472 1 15.412 1 15V12.2422ZM8.5 7C8.22386 7 8 7.22386 8 7.5C8 7.77614 8.22386 8 8.5 8H12.5C12.7761 8 13 7.77614 13 7.5C13 7.22386 12.7761 7 12.5 7H8.5Z" fill="#7581FF"/>
</svg>
