<svg width="11" height="12" viewBox="0 0 11 12" fill="none" xmlns="http://www.w3.org/2000/svg">
<path d="M6.35435 11.8527C6.15944 12.0484 5.84285 12.0489 5.64724 11.854L0.162761 6.38902C-0.0529522 6.17408 -0.0529512 5.82477 0.162761 5.60982L5.64725 0.14484C5.84285 -0.0500734 6.15944 -0.0495088 6.35435 0.1461C6.54926 0.34171 6.5487 0.658292 6.35309 0.853206L1.18851 5.99942L6.35309 11.1456C6.5487 11.3406 6.54926 11.6571 6.35435 11.8527ZM10.3534 11.8527C10.1585 12.0484 9.84188 12.0489 9.64627 11.854L4.16178 6.38902C3.94607 6.17408 3.94607 5.82477 4.16178 5.60982L9.64627 0.14484C9.84188 -0.0500734 10.1585 -0.0495088 10.3534 0.1461C10.5483 0.34171 10.5477 0.658292 10.3521 0.853206L5.18753 5.99942L10.3521 11.1456C10.5477 11.3406 10.5483 11.6571 10.3534 11.8527Z" fill="#464B80"/>
</svg>
