<svg width="18" height="18" viewBox="0 0 18 18" fill="none" xmlns="http://www.w3.org/2000/svg">
<path d="M7.75 2.75C7.75 1.23122 6.51878 0 5 0C3.48122 0 2.25 1.23122 2.25 2.75C2.25 4.26878 3.48122 5.5 5 5.5C6.51878 5.5 7.75 4.26878 7.75 2.75ZM3.25 2.75C3.25 1.7835 4.0335 1 5 1C5.9665 1 6.75 1.7835 6.75 2.75C6.75 3.7165 5.9665 4.5 5 4.5C4.0335 4.5 3.25 3.7165 3.25 2.75ZM1.5 6.5H5.68252C5.51859 6.81013 5.39687 7.14601 5.32501 7.5H1.5C1.22386 7.5 1 7.72386 1 8V8.5C1 9.7591 2.09851 11.1138 4.09636 11.4309C3.77396 11.6501 3.50546 11.9426 3.31486 12.2845C1.20563 11.7119 0 10.0874 0 8.5V8C0 7.17157 0.671573 6.5 1.5 6.5ZM6.87858 6.5C7.38298 5.88925 8.14603 5.5 9 5.5C9.85397 5.5 10.617 5.88925 11.1214 6.5C11.3605 6.78952 11.5415 7.12881 11.6465 7.5C11.7139 7.73842 11.75 7.98999 11.75 8.25C11.75 9.32004 11.1389 10.2473 10.2466 10.7019C9.89194 10.8825 9.49291 10.9885 9.07018 10.9991C9.04686 10.9997 9.02346 11 9 11C8.97654 11 8.95315 10.9997 8.92983 10.9991C8.50709 10.9885 8.10806 10.8826 7.75342 10.7019C6.86115 10.2473 6.25 9.32004 6.25 8.25C6.25 7.98999 6.28608 7.73842 6.35352 7.5C6.4585 7.12881 6.63948 6.78952 6.87858 6.5ZM7.41841 7.5C7.31042 7.72731 7.25 7.9816 7.25 8.25C7.25 8.96407 7.67768 9.57825 8.29086 9.85036C8.50763 9.94655 8.74757 10 9 10C9.25243 10 9.49238 9.94655 9.70914 9.85036C10.3223 9.57825 10.75 8.96407 10.75 8.25C10.75 7.9816 10.6896 7.72731 10.5816 7.5C10.3362 6.98351 9.84532 6.60627 9.25972 6.51914C9.17498 6.50653 9.08825 6.5 9 6.5C8.91175 6.5 8.82502 6.50653 8.74028 6.51914C8.15468 6.60627 7.66377 6.98351 7.41841 7.5ZM14.6851 12.2845C14.4945 11.9426 14.226 11.6501 13.9036 11.4309C15.9015 11.1138 17 9.7591 17 8.5V8C17 7.72386 16.7761 7.5 16.5 7.5H12.675C12.6031 7.14601 12.4814 6.81013 12.3175 6.5H16.5C17.3284 6.5 18 7.17157 18 8V8.5C18 10.0874 16.7944 11.7119 14.6851 12.2845ZM13.4872 12.3706C13.2234 12.1398 12.878 12 12.5 12H5.5C5.06797 12 4.6786 12.1826 4.40489 12.4749C4.15376 12.7431 4 13.1036 4 13.5V14C4 15.9714 5.85951 18 9 18C12.1405 18 14 15.9714 14 14V13.5C14 13.0496 13.8015 12.6456 13.4872 12.3706ZM5 13.5C5 13.2239 5.22386 13 5.5 13H12.5C12.7761 13 13 13.2239 13 13.5V14C13 15.4376 11.5678 17 9 17C6.43216 17 5 15.4376 5 14V13.5ZM13 0C14.5188 0 15.75 1.23122 15.75 2.75C15.75 4.26878 14.5188 5.5 13 5.5C11.4812 5.5 10.25 4.26878 10.25 2.75C10.25 1.23122 11.4812 0 13 0ZM13 1C12.0335 1 11.25 1.7835 11.25 2.75C11.25 3.7165 12.0335 4.5 13 4.5C13.9665 4.5 14.75 3.7165 14.75 2.75C14.75 1.7835 13.9665 1 13 1Z" fill="#464B80"/>
</svg>
