<svg width="25" height="24" viewBox="0 0 25 24" fill="none" xmlns="http://www.w3.org/2000/svg">
<g clip-path="url(#clip0_5499_170290)">
<path d="M24.8574 12C24.8574 5.37258 19.4848 0 12.8574 0C6.23 0 0.857422 5.37258 0.857422 12C0.857422 17.9895 5.24563 22.954 10.9824 23.8542V15.4688H7.93555V12H10.9824V9.35625C10.9824 6.34875 12.774 4.6875 15.515 4.6875C16.8275 4.6875 18.2012 4.92188 18.2012 4.92188V7.875H16.688C15.1974 7.875 14.7324 8.80008 14.7324 9.75V12H18.0605L17.5285 15.4688H14.7324V23.8542C20.4692 22.954 24.8574 17.9895 24.8574 12Z" fill="#4F4F4F"/>
</g>
<defs>
<clipPath id="clip0_5499_170290">
<rect width="24" height="24" fill="white" transform="translate(0.857422)"/>
</clipPath>
</defs>
</svg>
