<svg width="16" height="14" viewBox="0 0 16 14" fill="none" xmlns="http://www.w3.org/2000/svg">
<path d="M3.5 4C3.77614 4 4 3.77614 4 3.5C4 3.22386 3.77614 3 3.5 3C3.22386 3 3 3.22386 3 3.5C3 3.77614 3.22386 4 3.5 4ZM3 7C3 6.72386 3.22386 6.5 3.5 6.5H6.5C6.77614 6.5 7 6.72386 7 7C7 7.27614 6.77614 7.5 6.5 7.5H3.5C3.22386 7.5 3 7.27614 3 7ZM3.5 10C3.22386 10 3 10.2239 3 10.5C3 10.7761 3.22386 11 3.5 11H6.5C6.77614 11 7 10.7761 7 10.5C7 10.2239 6.77614 10 6.5 10H3.5ZM2 14H10.4688C11.1198 14.0204 11.7816 13.6381 11.971 12.8229L12.3944 11H14.5C15.3284 11 16 10.3284 16 9.5V4.58208C16 3.59937 15.2489 3.02255 14.4844 3H10V1.5C10 0.671573 9.32843 0 8.5 0H1.5C0.671573 0 0 0.671573 0 1.5V12C0 13.1046 0.89543 14 2 14ZM1 1.5C1 1.22386 1.22386 1 1.5 1H8.5C8.77614 1 9 1.22386 9 1.5V12.4824C9 12.6719 9.02877 12.8447 9.08071 13H2C1.44772 13 1 12.5523 1 12V1.5ZM14.5 10H12.6267L13.9143 4.45763C14.0623 3.8205 15 3.92801 15 4.58208V9.5C15 9.77614 14.7761 10 14.5 10ZM10 4H13.0102C12.9826 4.07284 12.9591 4.14993 12.9402 4.23135L10.9969 12.5966C10.861 13.1816 10 13.0829 10 12.4824V4Z" fill="#464B80"/>
</svg>
