<svg width="38" height="38" viewBox="0 0 38 38" fill="none" xmlns="http://www.w3.org/2000/svg">
<rect width="38" height="38" rx="19" fill="#EBFFED"/>
<path d="M17.5063 12.401C18.4313 11.8699 19.5687 11.8699 20.4937 12.401L27.749 16.5664C27.9042 16.6556 28 16.8209 28 17C28 17.1791 27.9042 17.3445 27.7489 17.4336L25 19.0118V23.5C25 23.6326 24.9473 23.7598 24.8536 23.8535L24.852 23.8551L24.8496 23.8574L24.8428 23.8642L24.8201 23.8859C24.801 23.9039 24.7741 23.9288 24.7394 23.9596C24.6701 24.0213 24.5696 24.1067 24.4389 24.2078C24.1777 24.41 23.7948 24.6761 23.2978 24.9412C22.3033 25.4716 20.8479 26 19 26C17.1521 26 15.6967 25.4716 14.7022 24.9412C14.2052 24.6761 13.8223 24.41 13.5611 24.2078C13.4304 24.1067 13.3299 24.0213 13.2606 23.9596C13.2259 23.9288 13.199 23.9039 13.1799 23.8859C13.0723 23.7819 13 23.6537 13 23.5V19.0118L11 17.8636L11 22.5C11 22.7761 10.7761 23 10.5 23C10.2239 23 10 22.7761 10 22.5V17C10 16.8106 10.1053 16.6458 10.2605 16.561L17.5063 12.401ZM20.4937 21.599C19.5687 22.13 18.4313 22.13 17.5063 21.599L14 19.5859V23.2772C14.0469 23.3168 14.1047 23.364 14.1733 23.4171C14.3965 23.5899 14.7323 23.8239 15.1728 24.0588C16.0533 24.5284 17.3479 25 19 25C20.6521 25 21.9467 24.5284 22.8272 24.0588C23.2677 23.8239 23.6035 23.5899 23.8267 23.4171C23.8953 23.364 23.9531 23.3168 24 23.2772V19.5859L20.4937 21.599ZM19.9958 13.2682C19.3791 12.9142 18.6209 12.9142 18.0042 13.2682L11.5042 17L18.0042 20.7317C18.6209 21.0858 19.3791 21.0858 19.9958 20.7317L26.4958 17L19.9958 13.2682Z" fill="#5CD568"/>
<rect x="0.5" y="0.5" width="37" height="37" rx="18.5" stroke="#2835BB" stroke-opacity="0.08"/>
</svg>
