<svg width="14" height="13" viewBox="0 0 14 13" fill="none" xmlns="http://www.w3.org/2000/svg">
<path d="M8.36808 0.447153C7.53695 -0.0963028 6.46296 -0.096318 5.63181 0.447115L0.226135 3.98153C0.0860724 4.07311 0.0011096 4.22869 -0.000228111 4.39602C-0.00037599 4.41452 0.000500198 4.43289 0.00236284 4.45106C0.000799891 4.46716 -3.73984e-09 4.48348 -3.73984e-09 4.49998L-1.82554e-07 8.49998C-3.01763e-07 8.77613 0.223857 8.99998 0.5 8.99998C0.776142 8.99998 1 8.77613 1 8.49998L1 5.34242L2 6.01932V9.7C2 9.81865 2.04279 9.93413 2.11963 10.0245L2.12039 10.0254L2.12237 10.0277L2.12823 10.0345L2.14752 10.0563C2.16372 10.0743 2.18661 10.0993 2.21603 10.1303C2.27484 10.1922 2.35997 10.2781 2.47026 10.3799C2.69051 10.5832 3.01312 10.8519 3.42899 11.1201C4.25964 11.656 5.47783 12.2 7.0001 12.2C8.52236 12.2 9.74051 11.656 10.5711 11.1201C10.987 10.8518 11.3096 10.5832 11.5298 10.3799C11.6401 10.2781 11.7252 10.1922 11.784 10.1303C11.8134 10.0993 11.8363 10.0743 11.8525 10.0562L11.8718 10.0345L11.8777 10.0277L11.8796 10.0254L11.881 10.0238C11.9578 9.93341 12 9.81864 12 9.7V6.01906L13.78 4.81407C13.9186 4.72027 14.0014 4.60538 13.9997 4.39602C13.9984 4.22869 13.9134 4.07312 13.7734 3.98154L8.36808 0.447153ZM11 6.696V9.50221C10.9601 9.54235 10.9105 9.59063 10.8515 9.6451C10.6655 9.8168 10.3881 10.0482 10.029 10.2799C9.30964 10.744 8.27783 11.2 7.0001 11.2C5.72236 11.2 4.6905 10.744 3.97111 10.2798C3.61196 10.0481 3.33454 9.81679 3.14852 9.64509C3.08951 9.59062 3.0399 9.54234 3 9.5022V6.69622L5.59853 8.45516C6.44497 9.02812 7.55494 9.0281 8.40136 8.45512L11 6.696ZM2.5 9.7L2.11963 10.0245C2.11963 10.0245 2.11904 10.0238 2.5 9.7ZM6.17905 1.28409C6.67774 0.95803 7.32214 0.958039 7.82082 1.28411L12.5972 4.39998L7.84078 7.62702C7.33293 7.97081 6.66695 7.97082 6.15909 7.62704L1.40239 4.40724L6.17905 1.28409Z" fill="#828282"/>
</svg>
