<svg width="25" height="24" viewBox="0 0 25 24" fill="none" xmlns="http://www.w3.org/2000/svg">
<g clip-path="url(#clip0_5499_170289)">
<path d="M12.8574 2.16211C16.0618 2.16211 16.4409 2.1745 17.7066 2.23214C18.8765 2.28549 19.5119 2.48079 19.9349 2.64512C20.4568 2.83727 20.9288 3.14412 21.3163 3.54303C21.7152 3.93049 22.0221 4.40256 22.2142 4.92442C22.3785 5.34741 22.5738 5.98285 22.6272 7.15274C22.6848 8.41838 22.6972 8.79755 22.6972 12.0019C22.6972 15.2063 22.6848 15.5854 22.6272 16.8511C22.5738 18.021 22.3785 18.6564 22.2142 19.0794C22.0143 19.5968 21.7085 20.0667 21.3163 20.4589C20.9241 20.8511 20.4542 21.1569 19.9368 21.3568C19.5138 21.5211 18.8784 21.7164 17.7085 21.7698C16.4433 21.8274 16.0637 21.8398 12.8593 21.8398C9.65498 21.8398 9.27533 21.8274 8.01017 21.7698C6.84027 21.7164 6.20483 21.5211 5.78184 21.3568C5.25998 21.1646 4.78792 20.8578 4.40045 20.4589C4.00154 20.0714 3.6947 19.5993 3.50255 19.0775C3.33821 18.6545 3.14291 18.0191 3.08956 16.8492C3.03192 15.5835 3.01954 15.2043 3.01954 12C3.01954 8.79565 3.03192 8.41648 3.08956 7.15084C3.14291 5.98094 3.33821 5.3455 3.50255 4.92251C3.6947 4.40066 4.00154 3.92859 4.40045 3.54112C4.78792 3.14221 5.25998 2.83537 5.78184 2.64322C6.20483 2.47888 6.84027 2.28358 8.01017 2.23023C9.27581 2.17259 9.65498 2.16021 12.8593 2.16021M12.8593 -0.00190735C9.6002 -0.00190735 9.1915 0.0119066 7.91157 0.0704966C6.63164 0.129087 5.76041 0.333437 4.99683 0.630198C4.19618 0.93146 3.47085 1.40369 2.87139 2.01397C2.26197 2.61367 1.79057 3.33898 1.49 4.13941C1.19086 4.90298 0.98794 5.77516 0.929826 7.05224C0.871712 8.32931 0.857422 8.74087 0.857422 12C0.857422 15.2591 0.871236 15.6678 0.929826 16.9478C0.988416 18.2277 1.19086 19.097 1.48762 19.8606C1.78888 20.6612 2.26111 21.3866 2.87139 21.986C3.47096 22.5963 4.19625 23.0687 4.99683 23.3703C5.75898 23.6666 6.63259 23.8695 7.90966 23.9281C9.18673 23.9867 9.59829 24 12.8574 24C16.1166 24 16.5253 23.9862 17.8052 23.9281C19.0851 23.87 19.9544 23.6666 20.718 23.3703C21.5151 23.0619 22.2391 22.5904 22.8435 21.986C23.4478 21.3817 23.9193 20.6577 24.2277 19.8606C24.524 19.0984 24.7269 18.2248 24.7855 16.9478C24.8441 15.6707 24.8574 15.2591 24.8574 12C24.8574 8.74087 24.8436 8.33217 24.7855 7.05224C24.7274 5.77231 24.524 4.90298 24.2277 4.13941C23.9261 3.33883 23.4537 2.61354 22.8434 2.01397C22.2438 1.40455 21.5184 0.933145 20.718 0.63258C19.9544 0.333437 19.0823 0.130516 17.8052 0.072402C16.5281 0.0142883 16.1166 -1.98185e-06 12.8574 -1.98185e-06L12.8593 -0.00190735Z" fill="#4F4F4F"/>
<path d="M12.8575 5.83804C11.6387 5.83804 10.4472 6.19948 9.43379 6.87663C8.42037 7.55379 7.63052 8.51626 7.16411 9.64233C6.69771 10.7684 6.5757 12.0075 6.81352 13.2029C7.05133 14.3983 7.63829 15.4963 8.50017 16.3581C9.36205 17.22 10.4601 17.8068 11.6556 18.0446C12.851 18.2823 14.0901 18.1602 15.2161 17.6937C16.3421 17.2272 17.3045 16.4373 17.9816 15.4238C18.6587 14.4103 19.02 13.2188 19.0199 12C19.02 11.1907 18.8606 10.3894 18.551 9.64174C18.2413 8.89407 17.7874 8.21474 17.2151 7.64253C16.6429 7.07032 15.9635 6.61645 15.2158 6.30683C14.4681 5.99721 13.6668 5.83792 12.8575 5.83804ZM12.8575 15.9998C12.0661 15.9998 11.2925 15.7652 10.6345 15.3255C9.97651 14.8858 9.46366 14.2609 9.16081 13.5298C8.85797 12.7987 8.77873 11.9941 8.93312 11.218C9.08751 10.4418 9.46859 9.72883 10.0282 9.16925C10.5878 8.60966 11.3007 8.22857 12.0769 8.07418C12.8531 7.91979 13.6576 7.99903 14.3887 8.30188C15.1199 8.60473 15.7448 9.11758 16.1844 9.77558C16.6241 10.4336 16.8588 11.2072 16.8588 11.9986C16.8588 13.0598 16.4372 14.0775 15.6868 14.8279C14.9364 15.5783 13.9187 15.9998 12.8575 15.9998Z" fill="#4F4F4F"/>
<path d="M19.2632 7.03414C20.0585 7.03414 20.7032 6.38944 20.7032 5.59416C20.7032 4.79888 20.0585 4.15417 19.2632 4.15417C18.4679 4.15417 17.8232 4.79888 17.8232 5.59416C17.8232 6.38944 18.4679 7.03414 19.2632 7.03414Z" fill="#4F4F4F"/>
</g>
<defs>
<clipPath id="clip0_5499_170289">
<rect width="24" height="24" fill="white" transform="translate(0.857422)"/>
</clipPath>
</defs>
</svg>
