<svg width="20" height="20" viewBox="0 0 20 20" fill="none" xmlns="http://www.w3.org/2000/svg">
<path d="M14.5044 16.189L14.5001 16.1849C14.3682 16.053 14.245 15.9126 14.1314 15.7646C13.6308 15.1116 13.3304 14.3272 13.2669 13.5068C13.2033 12.6864 13.3791 11.8651 13.7731 11.1427C13.7733 11.1423 13.7733 11.1418 13.7731 11.1414C13.7778 11.1331 13.7825 11.1243 13.7873 11.1159C13.4986 11.586 13.0791 11.9617 12.5803 12.1971C12.0814 12.4326 11.5247 12.5175 10.9783 12.4415C10.4319 12.3656 9.9195 12.132 9.50375 11.7694C9.088 11.4069 8.78693 10.931 8.63738 10.4L8.63638 10.396C8.63071 10.3759 8.62518 10.3556 8.62008 10.3352V10.3342C8.46918 9.79687 8.16312 9.316 7.74023 8.95181C7.31733 8.58761 6.79638 8.35627 6.24263 8.28674C5.68887 8.21722 5.1269 8.31261 4.6271 8.56096C4.1273 8.80932 3.71187 9.1996 3.43284 9.68295V9.68422C3.06358 10.3226 2.95843 11.0801 3.13983 11.7949V11.7966C3.14097 11.8012 3.1421 11.8057 3.14338 11.8108L3.14494 11.8165C3.1465 11.823 3.1482 11.8294 3.1499 11.8358C3.15161 11.8422 3.15331 11.8487 3.15529 11.8551L3.15671 11.8607C3.15799 11.8654 3.15912 11.87 3.16054 11.8749V11.8766C3.44064 12.8959 3.94476 13.8397 4.63613 14.6393C5.32749 15.4388 6.18865 16.074 7.15677 16.4983C8.63019 17.1451 10.2803 17.2694 11.834 16.8506C12.0139 16.8021 12.2016 16.7897 12.3862 16.814C12.5709 16.8384 12.749 16.899 12.9102 16.9924L12.916 16.9957C13.1324 17.12 13.3643 17.2154 13.6056 17.2793C14.0832 17.4059 14.5857 17.4047 15.0627 17.2759C15.2804 17.2176 15.4905 17.1338 15.6884 17.026C15.2488 16.8167 14.8483 16.5336 14.5044 16.189ZM6.90546 10.7611C6.81143 10.9239 6.65655 11.0428 6.47489 11.0914C6.29324 11.1401 6.09969 11.1146 5.93683 11.0206C5.91413 11.0076 5.89212 10.9934 5.87088 10.9781C5.76065 10.8969 5.67627 10.7855 5.62794 10.6575C5.5796 10.5294 5.56937 10.3901 5.59848 10.2563C5.62759 10.1225 5.69479 10 5.79198 9.90364C5.88917 9.80724 6.01218 9.74102 6.14617 9.71299C6.28017 9.68496 6.41941 9.69632 6.54709 9.74569C6.67477 9.79505 6.78543 9.88032 6.86572 9.9912C6.946 10.1021 6.99248 10.2338 6.99953 10.3705C7.00658 10.5073 6.97391 10.6431 6.90546 10.7616V10.7611Z" fill="#2835BB"/>
<path d="M17.0134 8.9527C17.2075 10.2387 17.0424 11.5533 16.5362 12.7514C16.421 13.024 16.289 13.2892 16.1409 13.5456C15.8403 14.0673 15.4744 14.5486 15.0522 14.978C14.8164 15.218 14.5636 15.4408 14.2959 15.6445C14.2419 15.6856 14.1873 15.7259 14.1321 15.7652C13.6314 15.1121 13.3311 14.3278 13.2675 13.5074C13.2039 12.6869 13.3798 11.8657 13.7738 11.1433C13.774 11.1429 13.774 11.1424 13.7738 11.142C13.809 11.0837 13.8432 11.0245 13.8765 10.9644C14.0998 10.56 14.2729 10.1298 14.3922 9.6835C14.4394 9.50859 14.4777 9.33368 14.5069 9.15877C14.7265 7.86481 14.4891 6.53474 13.8354 5.39669C13.8352 5.39628 13.8349 5.3959 13.8347 5.39555C13.8284 5.38449 13.8222 5.37371 13.8159 5.36293C13.8159 5.3626 13.8159 5.36227 13.8159 5.36194C13.6872 5.14059 13.5437 4.92822 13.3862 4.7263C13.3091 4.62702 13.2287 4.53035 13.1451 4.43628C12.594 3.81719 11.9132 3.32721 11.1511 3.00119C11.9058 3.12543 12.6353 3.37153 13.3111 3.72987C13.3897 3.77137 13.4679 3.81458 13.5455 3.85949C13.666 3.92898 13.7837 4.00155 13.8986 4.07718C15.6386 5.21984 16.7233 7.01784 17.0134 8.9527Z" fill="#1A74CC"/>
<path d="M13.8161 5.3608C13.7189 5.20357 13.5642 5.09043 13.3849 5.04541C13.2056 5.0004 13.0158 5.02705 12.8559 5.11971C12.2068 5.49385 11.4361 5.59596 10.7121 5.40373C9.98799 5.21151 9.3694 4.74057 8.9914 4.09378C8.98531 4.083 8.97921 4.07208 8.97283 4.06158C8.81437 3.79691 8.57397 3.59108 8.28804 3.47528C8.00212 3.35948 7.68624 3.34002 7.38826 3.41984C7.3336 3.43453 7.27985 3.45243 7.22729 3.47345L7.23013 3.47218C8.46672 2.9483 9.8263 2.78502 11.1518 3.00119C11.9134 3.32702 12.5939 3.81666 13.1449 4.43528C13.2286 4.52926 13.309 4.62594 13.386 4.7253C13.5436 4.92717 13.6873 5.13949 13.8161 5.3608Z" fill="#88E2E2"/>
<path d="M11.6543 10.5112C11.6084 10.6862 11.4975 10.8371 11.3441 10.933C11.1908 11.029 11.0065 11.0628 10.8291 11.0275C10.6517 10.9922 10.4944 10.8905 10.3895 10.7431C10.2845 10.5957 10.2398 10.4139 10.2644 10.2346C10.2793 10.1403 10.3131 10.05 10.3638 9.96903C10.4145 9.8881 10.481 9.81823 10.5593 9.76361C10.6376 9.709 10.7262 9.67077 10.8197 9.65122C10.9131 9.63167 11.0096 9.6312 11.1032 9.64983C11.1969 9.66847 11.2858 9.70583 11.3647 9.75967C11.4435 9.81351 11.5107 9.88273 11.5622 9.96316C11.6136 10.0436 11.6483 10.1336 11.6641 10.2278C11.68 10.3219 11.6766 10.4183 11.6543 10.5112Z" fill="#2835BB"/>
</svg>
