<svg width="25" height="24" viewBox="0 0 25 24" fill="none" xmlns="http://www.w3.org/2000/svg">
<g clip-path="url(#clip0_5499_170830)">
<path d="M20.5914 20.4496H17.0353V14.8805C17.0353 13.5525 17.0116 11.8429 15.1857 11.8429C13.3335 11.8429 13.0501 13.2899 13.0501 14.7838V20.4492H9.49399V8.99689H12.9079V10.562H12.9557C13.6518 9.37175 14.9462 8.66088 16.3241 8.71203C19.9284 8.71203 20.593 11.0828 20.593 14.167L20.5914 20.4496ZM5.48143 7.43144C4.34168 7.43164 3.41756 6.50786 3.41736 5.36812C3.41716 4.22837 4.34096 3.30426 5.48068 3.30406C6.62043 3.30386 7.54455 4.22764 7.54475 5.36738C7.54495 6.50712 6.62117 7.43124 5.48143 7.43144ZM7.25951 20.4496H3.69964V8.99689H7.25951V20.4496ZM22.3643 0.00163898H1.91265C0.946072 -0.00927056 0.153404 0.764989 0.141602 1.73157V22.2681C0.152997 23.2351 0.945595 24.0101 1.91265 23.9999H22.3643C23.3333 24.012 24.129 23.237 24.1424 22.2681V1.73008C24.1286 0.761599 23.3328 -0.0126144 22.3643 0.000155731" fill="#4F4F4F"/>
</g>
<defs>
<clipPath id="clip0_5499_170830">
<rect width="24.0008" height="24" fill="white" transform="translate(0.141602)"/>
</clipPath>
</defs>
</svg>
