<svg width="21" height="20" viewBox="0 0 21 20" fill="none" xmlns="http://www.w3.org/2000/svg">
<g clip-path="url(#clip0_3281_2917)">
<path d="M17.5409 17.0413H14.5776V12.4004C14.5776 11.2937 14.5578 9.86912 13.0363 9.86912C11.4929 9.86912 11.2568 11.0749 11.2568 12.3199V17.041H8.29339V7.49741H11.1382V8.80165H11.1781C11.7581 7.8098 12.8367 7.2174 13.9849 7.26003C16.9884 7.26003 17.5422 9.23568 17.5422 11.8059L17.5409 17.0413ZM4.9497 6.19287C3.99995 6.19304 3.22987 5.42322 3.2297 4.47343C3.22953 3.52364 3.99934 2.75355 4.94908 2.75338C5.89884 2.75321 6.66891 3.52303 6.66908 4.47282C6.66925 5.4226 5.89946 6.1927 4.9497 6.19287ZM6.43139 17.0413H3.46493V7.49741H6.43139V17.0413ZM19.0183 0.00136582H1.97582C1.17037 -0.00772547 0.509835 0.637491 0.5 1.44297V18.5567C0.509496 19.3626 1.16997 20.0085 1.97582 19.9999H19.0183C19.8258 20.01 20.4888 19.3642 20.5 18.5567V1.44174C20.4885 0.634665 19.8254 -0.010512 19.0183 0.000129776" fill="#0A66C1"/>
</g>
<defs>
<clipPath id="clip0_3281_2917">
<rect width="20" height="20" fill="white" transform="translate(0.5)"/>
</clipPath>
</defs>
</svg>
