<svg width="9" height="10" viewBox="0 0 9 10" fill="none" xmlns="http://www.w3.org/2000/svg">
<path d="M0.646447 0.853553C0.451184 0.658291 0.451184 0.341709 0.646447 0.146447C0.841709 -0.0488155 1.15829 -0.0488155 1.35355 0.146447L5.85355 4.64645C6.04882 4.84171 6.04882 5.15829 5.85355 5.35355L1.35355 9.85355C1.15829 10.0488 0.841709 10.0488 0.646447 9.85355C0.451185 9.65829 0.451185 9.34171 0.646447 9.14645L4.79289 5L0.646447 0.853553ZM9 0.5C9 0.223858 8.77614 0 8.5 0C8.22386 0 8 0.223858 8 0.5V9.5C8 9.77614 8.22386 10 8.5 10C8.77614 10 9 9.77614 9 9.5V0.5Z" fill="black" fill-opacity="0.8"/>
</svg>
