<svg width="17" height="16" viewBox="0 0 17 16" fill="none" xmlns="http://www.w3.org/2000/svg">
<path d="M15.6813 0.926893C14.5291 -0.284951 12.6047 -0.309226 11.4222 0.873168L2.04741 10.2475C1.71958 10.5754 1.49204 10.9899 1.39148 11.4424L0.513865 15.3923C0.476784 15.5592 0.527543 15.7335 0.648442 15.8544C0.76934 15.9753 0.943618 16.026 1.1105 15.9889L5.03689 15.1157C5.50432 15.0118 5.93243 14.7767 6.27103 14.4381L15.629 5.08003C16.77 3.939 16.7933 2.09631 15.6813 0.926893ZM12.1293 1.58029C12.9143 0.795384 14.1917 0.811498 14.9566 1.61596C15.6948 2.39225 15.6793 3.61548 14.9219 4.37293L14.2507 5.04418L11.458 2.25155L12.1293 1.58029ZM10.7509 2.95864L13.5436 5.7513L5.56391 13.731C5.35976 13.9352 5.10164 14.0769 4.81982 14.1396L1.6605 14.8421L2.36768 11.6593C2.42698 11.3924 2.56117 11.148 2.7545 10.9547L10.7509 2.95864Z" fill="#2E3EE5"/>
</svg>
