<svg width="20" height="18" viewBox="0 0 20 18" fill="none" xmlns="http://www.w3.org/2000/svg">
<path d="M4.52832 4.75C4.52832 5.16421 4.19253 5.5 3.77832 5.5C3.36411 5.5 3.02832 5.16421 3.02832 4.75C3.02832 4.33579 3.36411 4 3.77832 4C4.19253 4 4.52832 4.33579 4.52832 4.75ZM3.78125 12C3.36704 12 3.03125 12.3358 3.03125 12.75C3.03125 13.1642 3.36704 13.5 3.78125 13.5H8.78125C9.19546 13.5 9.53125 13.1642 9.53125 12.75C9.53125 12.3358 9.19546 12 8.78125 12H3.78125ZM3.03125 8.75C3.03125 8.33579 3.36704 8 3.78125 8H8.78125C9.19546 8 9.53125 8.33579 9.53125 8.75C9.53125 9.16421 9.19546 9.5 8.78125 9.5H3.78125C3.36704 9.5 3.03125 9.16421 3.03125 8.75ZM13 18C13.9411 17.9936 14.7494 17.3272 14.9342 16.4032L15.4149 14H18.25C19.2165 14 20 13.2165 20 12.25V6.26115C20 5.01607 18.9937 4.00603 17.75 4.00003V3.99609H12.5V2.25C12.5 1.00736 11.4926 0 10.25 0H2.25C1.00736 0 0 1.00736 0 2.25V14.75C0 16.5449 1.45507 18 3.25 18H12.9864L13 18ZM1.5 2.25C1.5 1.83579 1.83579 1.5 2.25 1.5H10.25C10.6642 1.5 11 1.83579 11 2.25V16.0136C11 16.1814 11.0208 16.3444 11.06 16.5H3.25C2.2835 16.5 1.5 15.7165 1.5 14.75V2.25ZM12.5 5.49609H15.6109C15.5737 5.5997 15.5437 5.70708 15.5216 5.8177L13.4633 16.109C13.4179 16.3363 13.2183 16.5 12.9864 16.5C12.7178 16.5 12.5 16.2822 12.5 16.0136V5.49609ZM16.9925 6.11188C17.0636 5.7561 17.376 5.5 17.7388 5.5C18.1592 5.5 18.5 5.84078 18.5 6.26115V12.25C18.5 12.3881 18.3881 12.5 18.25 12.5H15.7149L16.9925 6.11188Z" fill="#2E3EE5"/>
</svg>
