<svg width="9" height="10" viewBox="0 0 9 10" fill="none" xmlns="http://www.w3.org/2000/svg">
<path d="M8.35355 0.853553C8.54882 0.658291 8.54882 0.341709 8.35355 0.146447C8.15829 -0.0488155 7.84171 -0.0488155 7.64645 0.146447L3.14645 4.64645C2.95118 4.84171 2.95118 5.15829 3.14645 5.35355L7.64645 9.85355C7.84171 10.0488 8.15829 10.0488 8.35355 9.85355C8.54881 9.65829 8.54881 9.34171 8.35355 9.14645L4.20711 5L8.35355 0.853553ZM0 0.5C0 0.223858 0.223858 0 0.5 0C0.776143 0 1 0.223858 1 0.5V9.5C1 9.77614 0.776143 10 0.5 10C0.223858 10 0 9.77614 0 9.5V0.5Z" fill="black" fill-opacity="0.8"/>
</svg>
