<svg width="16" height="16" viewBox="0 0 16 16" fill="none" xmlns="http://www.w3.org/2000/svg">
<path d="M7 0.5C7 0.223858 7.22386 0 7.5 0H10.5C10.7761 0 11 0.223858 11 0.5V1.5C11 1.77614 10.7761 2 10.5 2H8V3C10.7614 3 13 5.23858 13 8V9H14C15.1046 9 16 9.89543 16 11V15C16 15.5523 15.5523 16 15 16H1C0.447716 16 0 15.5523 0 15V11C0 9.89543 0.895431 9 2 9H3V8C3 5.58104 4.71776 3.56329 7 3.10002V0.5ZM14 10H12.5C12.2239 10 12 9.77614 12 9.5V8C12 5.79086 10.2091 4 8 4C5.79086 4 4 5.79086 4 8V9.5C4 9.77614 3.77614 10 3.5 10H2C1.44772 10 1 10.4477 1 11V15H6V13C6 12.4477 6.44772 12 7 12H9C9.55228 12 10 12.4477 10 13V15H15V11C15 10.4477 14.5523 10 14 10ZM4 11.5C4 11.2239 3.77614 11 3.5 11C3.22386 11 3 11.2239 3 11.5V13.5C3 13.7761 3.22386 14 3.5 14C3.77614 14 4 13.7761 4 13.5V11.5ZM13 11.5C13 11.2239 12.7761 11 12.5 11C12.2239 11 12 11.2239 12 11.5V13.5C12 13.7761 12.2239 14 12.5 14C12.7761 14 13 13.7761 13 13.5V11.5ZM6.5 7C6.22386 7 6 7.22386 6 7.5V9.5C6 9.77614 6.22386 10 6.5 10C6.77614 10 7 9.77614 7 9.5V7.5C7 7.22386 6.77614 7 6.5 7ZM10 7.5C10 7.22386 9.77614 7 9.5 7C9.22386 7 9 7.22386 9 7.5V9.5C9 9.77614 9.22386 10 9.5 10C9.77614 10 10 9.77614 10 9.5V7.5ZM7 15H9V13H7V15Z" fill="#464B80"/>
</svg>
