<svg width="10" height="10" viewBox="0 0 10 10" fill="none" xmlns="http://www.w3.org/2000/svg">
<path d="M7.35355 4.10355C7.54882 3.90829 7.54882 3.59171 7.35355 3.39645C7.15829 3.20118 6.84171 3.20118 6.64645 3.39645L4.5 5.54289L3.35355 4.39645C3.15829 4.20118 2.84171 4.20118 2.64645 4.39645C2.45118 4.59171 2.45118 4.90829 2.64645 5.10355L4.14645 6.60355C4.34171 6.79882 4.65829 6.79882 4.85355 6.60355L7.35355 4.10355ZM5 0C2.23858 0 0 2.23858 0 5C0 7.76142 2.23858 10 5 10C7.76142 10 10 7.76142 10 5C10 2.23858 7.76142 0 5 0ZM1 5C1 2.79086 2.79086 1 5 1C7.20914 1 9 2.79086 9 5C9 7.20914 7.20914 9 5 9C2.79086 9 1 7.20914 1 5Z" fill="#464B80" fill-opacity="0.6"/>
</svg>
