<svg width="25" height="24" viewBox="0 0 25 24" fill="none" xmlns="http://www.w3.org/2000/svg">
<g clip-path="url(#clip0_5499_170292)">
<path fill-rule="evenodd" clip-rule="evenodd" d="M24.1426 12C24.1426 18.6274 18.77 24 12.1426 24C5.51516 24 0.142578 18.6274 0.142578 12C0.142578 5.37258 5.51516 0 12.1426 0C18.77 0 24.1426 5.37258 24.1426 12ZM18.1784 10.0979C18.1784 13.9199 15.2684 18.3299 9.94641 18.3299C8.31441 18.3299 6.79041 17.8499 5.52441 17.0219C5.75241 17.0519 5.98041 17.0639 6.21441 17.0639C7.57041 17.0639 8.81841 16.6019 9.80841 15.8279C8.54241 15.8039 7.47441 14.9699 7.10841 13.8179C7.28841 13.8539 7.46841 13.8719 7.65441 13.8719C7.91841 13.8719 8.17641 13.8359 8.41641 13.7699C7.09041 13.4999 6.09441 12.3359 6.09441 10.9319V10.8959C6.48441 11.1119 6.92841 11.2439 7.40241 11.2559C6.62241 10.7399 6.11241 9.85193 6.11241 8.84993C6.11241 8.32193 6.25641 7.82393 6.50241 7.39793C7.93041 9.14993 10.0604 10.3019 12.4664 10.4219C12.4124 10.2119 12.3884 9.98993 12.3884 9.76193C12.3884 8.16593 13.6844 6.86993 15.2804 6.86993C16.1144 6.86993 16.8644 7.21793 17.3924 7.78193C18.0524 7.64993 18.6704 7.40993 19.2284 7.07993C19.0124 7.75793 18.5564 8.32193 17.9564 8.68193C18.5444 8.60993 19.1024 8.45393 19.6184 8.22593C19.2284 8.80793 18.7364 9.31793 18.1724 9.72593C18.1784 9.84593 18.1784 9.97193 18.1784 10.0979Z" fill="#4F4F4F"/>
</g>
<defs>
<clipPath id="clip0_5499_170292">
<rect width="24" height="24" fill="white" transform="translate(0.142578)"/>
</clipPath>
</defs>
</svg>
