<svg width="196" height="54" viewBox="0 0 196 54" fill="none" xmlns="http://www.w3.org/2000/svg">
<path fill-rule="evenodd" clip-rule="evenodd" d="M195.994 0.58328C196.039 0.957281 195.83 1.30595 195.526 1.36205C194.843 1.48816 194.192 1.66174 193.567 1.87626C193.271 1.97785 192.964 1.7649 192.882 1.40061C192.799 1.03633 192.972 0.658659 193.268 0.557069C193.937 0.327687 194.632 0.142252 195.361 0.00766922C195.665 -0.048431 195.948 0.209279 195.994 0.58328ZM2.53854 2.21125C1.88437 2.139 1.2307 2.11607 0.578396 2.14798C0.271402 2.16299 0.0126454 1.86883 0.00044697 1.49094C-0.0117514 1.11305 0.227228 0.794543 0.534221 0.779527C1.2372 0.745144 1.93891 0.769991 2.63797 0.847203C2.94398 0.881002 3.16979 1.21375 3.14233 1.59043C3.11487 1.9671 2.84455 2.24505 2.53854 2.21125ZM6.03704 2.31673C6.12681 1.95504 6.43777 1.75141 6.7316 1.8619C8.03803 2.35315 9.32754 2.98712 10.5916 3.71754C10.8697 3.87825 10.9893 4.28605 10.8587 4.62839C10.7282 4.97073 10.3969 5.11797 10.1188 4.95726C8.89333 4.24914 7.65353 3.64058 6.40655 3.17168C6.11271 3.06119 5.94728 2.67841 6.03704 2.31673ZM190.081 2.82251C190.227 3.15522 190.127 3.57069 189.856 3.75049C188.676 4.53592 187.553 5.45382 186.423 6.44593C186.173 6.66557 185.826 6.59405 185.647 6.28619C185.469 5.97832 185.527 5.55069 185.777 5.33105C186.924 4.32353 188.089 3.36936 189.328 2.54564C189.598 2.36584 189.935 2.4898 190.081 2.82251ZM13.4659 6.34244C13.622 6.01668 13.963 5.90832 14.2277 6.10041C15.4141 6.96158 16.5716 7.87532 17.692 8.79949C17.9472 9.01002 18.0155 9.43538 17.8444 9.74954C17.6734 10.0637 17.3278 10.1477 17.0726 9.93718C15.9645 9.02309 14.8256 8.12432 13.6625 7.28012C13.3979 7.08802 13.3098 6.66821 13.4659 6.34244ZM183.209 8.5034C183.389 8.80927 183.335 9.23752 183.086 9.45995C182.532 9.95566 181.965 10.4528 181.379 10.9436C180.786 11.4406 180.188 11.9324 179.586 12.4186C179.329 12.6261 178.985 12.538 178.816 12.2218C178.647 11.9056 178.719 11.4811 178.976 11.2736C179.572 10.7917 180.165 10.3041 180.753 9.81135C181.327 9.33107 181.884 8.84276 182.432 8.35231C182.68 8.12989 183.028 8.19754 183.209 8.5034ZM20.2725 11.8247C20.4499 11.5159 20.7971 11.4427 21.0479 11.6611C21.2617 11.8473 21.4733 12.0319 21.6829 12.2147C22.0295 12.517 22.3705 12.8145 22.7069 13.1065C23.2654 13.5914 23.8106 14.0923 24.3443 14.6063C24.5863 14.8393 24.629 15.2697 24.4397 15.5676C24.2504 15.8654 23.9008 15.918 23.6588 15.685C23.1383 15.1838 22.6079 14.6965 22.0656 14.2256C21.7284 13.9329 21.3854 13.6337 21.0378 13.3306C20.8285 13.148 20.6176 12.964 20.4053 12.7792C20.1545 12.5607 20.095 12.1334 20.2725 11.8247ZM176.126 14.3138C176.285 14.6371 176.201 15.0583 175.939 15.2545C174.711 16.1719 173.467 17.0632 172.208 17.9246C171.939 18.1084 171.6 17.9894 171.451 17.6588C171.302 17.3283 171.399 16.9113 171.667 16.7276C172.913 15.875 174.145 14.9924 175.361 14.0837C175.624 13.8875 175.966 13.9905 176.126 14.3138ZM130.848 14.6402C131.832 14.122 132.887 13.8715 133.832 14.1216C134.823 14.3837 135.687 14.8555 136.429 15.4968C136.681 15.714 136.742 16.141 136.565 16.4506C136.389 16.7602 136.042 16.8351 135.79 16.6178C135.173 16.0847 134.448 15.6852 133.598 15.4606C132.957 15.2909 132.147 15.4458 131.286 15.8993C131.003 16.0481 130.676 15.8868 130.555 15.5392C130.435 15.1915 130.566 14.789 130.848 14.6402ZM26.6597 17.8913C26.8662 17.6113 27.2181 17.5905 27.4455 17.8448C28.4472 18.9646 29.4209 20.1157 30.3821 21.2733C30.6017 21.5377 30.6056 21.9713 30.3907 22.2416C30.1758 22.5119 29.8236 22.5167 29.604 22.2522C28.6471 21.0998 27.6845 19.962 26.6975 18.8586C26.47 18.6043 26.4531 18.1712 26.6597 17.8913ZM127.377 19.0906C127.652 19.2576 127.766 19.6681 127.63 20.0074C127.245 20.97 127.127 21.9137 127.325 22.7578C127.505 23.5255 127.803 24.2114 128.2 24.8256C128.391 25.1216 128.351 25.5524 128.111 25.7878C127.87 26.0231 127.52 25.9739 127.329 25.6779C126.849 24.9341 126.479 24.0896 126.256 23.1374C125.959 21.8737 126.164 20.5726 126.632 19.4027C126.768 19.0634 127.101 18.9237 127.377 19.0906ZM168.639 19.4923C168.777 19.8301 168.667 20.2418 168.392 20.4118C167.106 21.2084 165.806 21.9714 164.492 22.6967C164.212 22.8515 163.883 22.6973 163.757 22.3522C163.631 22.0072 163.757 21.602 164.037 21.4472C165.335 20.7305 166.62 19.9763 167.892 19.1884C168.167 19.0184 168.501 19.1545 168.639 19.4923ZM138.804 20.6734C139.099 20.567 139.408 20.7749 139.494 21.1378C139.989 23.2158 140.129 25.5258 140.002 27.7753C139.981 28.1526 139.715 28.4372 139.408 28.411C139.102 28.3848 138.871 28.0577 138.892 27.6804C139.012 25.5556 138.877 23.4133 138.427 21.5232C138.34 21.1603 138.509 20.7798 138.804 20.6734ZM160.824 23.8706C160.936 24.2227 160.795 24.6201 160.509 24.7581C159.167 25.4059 157.812 26.0121 156.445 26.5726C156.154 26.6922 155.839 26.4983 155.741 26.1395C155.644 25.7807 155.802 25.3929 156.093 25.2733C157.441 24.7206 158.778 24.1225 160.103 23.483C160.389 23.345 160.712 23.5185 160.824 23.8706ZM32.4652 24.7614C32.68 24.4911 33.0322 24.4863 33.2518 24.7508C34.2097 25.9045 35.1723 27.0422 36.1583 28.1444C36.3858 28.3986 36.4027 28.8317 36.1962 29.1117C35.9896 29.3916 35.6378 29.4125 35.4104 29.1583C34.4096 28.0397 33.4359 26.8885 32.4737 25.7297C32.2541 25.4652 32.2503 25.0317 32.4652 24.7614ZM152.696 27.275C152.777 27.6399 152.602 28.0162 152.305 28.1155C150.913 28.5818 149.511 28.9984 148.098 29.3612C147.797 29.4384 147.503 29.2009 147.44 28.8307C147.377 28.4605 147.57 28.0977 147.871 28.0205C149.261 27.6635 150.642 27.2534 152.013 26.7941C152.31 26.6948 152.615 26.9101 152.696 27.275ZM130.681 27.9788C130.802 27.6308 131.129 27.4688 131.411 27.6169C132.623 28.2519 133.989 28.6924 135.367 28.975C135.67 29.0371 135.875 29.3899 135.825 29.763C135.774 30.136 135.488 30.3881 135.185 30.3259C133.744 30.0306 132.288 29.5651 130.975 28.877C130.693 28.7289 130.561 28.3267 130.681 27.9788ZM144.306 29.5092C144.349 29.8836 144.138 30.2305 143.834 30.2839C143.12 30.4093 142.403 30.5203 141.685 30.6165C141.041 30.7027 140.303 30.752 139.508 30.7547C139.201 30.7557 138.951 30.4499 138.95 30.0717C138.95 29.6935 139.198 29.3861 139.505 29.3851C140.266 29.3826 140.964 29.3354 141.564 29.255C142.271 29.1605 142.975 29.0514 143.677 28.9281C143.981 28.8747 144.263 29.1349 144.306 29.5092ZM38.417 31.4342C38.6061 31.1361 38.9557 31.0831 39.1978 31.3159C39.7189 31.8166 40.2496 32.3029 40.7922 32.7722C41.3788 33.2796 41.9745 33.7781 42.5788 34.2677C42.8354 34.4756 42.9066 34.9002 42.7377 35.2161C42.5688 35.5321 42.2238 35.6196 41.9671 35.4117C41.3536 34.9146 40.7485 34.4083 40.1525 33.8928C39.5934 33.4091 39.0476 32.909 38.5131 32.3953C38.271 32.1626 38.2279 31.7323 38.417 31.4342ZM138.533 33.3775C138.819 33.5158 138.96 33.9133 138.847 34.2653C138.488 35.391 138.055 36.4122 137.559 37.2593C137.183 37.9009 136.777 38.5104 136.344 39.0899C136.136 39.3682 135.784 39.3862 135.558 39.1301C135.332 38.874 135.317 38.4408 135.525 38.1625C135.93 37.6212 136.308 37.0539 136.656 36.4589C137.086 35.7237 137.478 34.8086 137.812 33.7642C137.924 33.4123 138.247 33.2391 138.533 33.3775ZM45.4992 37.3146C45.6533 36.9874 45.9936 36.8758 46.2595 37.0654C47.4992 37.9496 48.7674 38.799 50.0601 39.6128C50.3336 39.785 50.4419 40.1975 50.302 40.5343C50.1621 40.871 49.827 41.0043 49.5534 40.8321C48.2441 40.0078 46.9588 39.147 45.7017 38.2504C45.4358 38.0608 45.3452 37.6418 45.4992 37.3146ZM133.607 41.2405C133.788 41.5463 133.733 41.9746 133.485 42.1971C132.472 43.104 131.388 43.9149 130.262 44.6448C129.99 44.821 129.654 44.6926 129.511 44.358C129.368 44.0234 129.472 43.6092 129.744 43.433C130.83 42.7288 131.867 41.952 132.83 41.0896C133.079 40.8671 133.427 40.9347 133.607 41.2405ZM53.2265 42.2642C53.3528 41.9195 53.6823 41.7662 53.9623 41.9218C55.2736 42.6502 56.6045 43.3436 57.9511 44.0015C58.2367 44.141 58.3763 44.539 58.263 44.8906C58.1496 45.2421 57.8263 45.4139 57.5407 45.2744C56.1785 44.609 54.8319 43.9073 53.5047 43.1701C53.2246 43.0145 53.1001 42.6089 53.2265 42.2642ZM127.149 45.6889C127.264 46.0398 127.126 46.4386 126.841 46.5798C125.672 47.1582 124.487 47.6735 123.312 48.1393C123.02 48.2552 122.706 48.0574 122.612 47.6974C122.518 47.3374 122.679 46.9516 122.971 46.8357C124.127 46.3777 125.286 45.8732 126.425 45.3092C126.71 45.168 127.034 45.338 127.149 45.6889ZM61.3046 46.2809C61.4053 45.9235 61.7222 45.7343 62.0125 45.8581C63.3766 46.4402 64.7525 46.9865 66.1364 47.4964C66.4308 47.6048 66.598 47.9864 66.5099 48.3487C66.4218 48.711 66.1117 48.9168 65.8174 48.8084C64.4185 48.2929 63.0274 47.7407 61.6481 47.1521C61.3578 47.0283 61.204 46.6382 61.3046 46.2809ZM120.12 48.5992C120.201 48.9641 120.026 49.3405 119.73 49.44C119.118 49.6453 118.517 49.8403 117.93 50.0272C117.159 50.2731 116.385 50.5088 115.61 50.734C115.311 50.8209 115.011 50.5929 114.941 50.2249C114.87 49.8568 115.055 49.488 115.354 49.4011C116.122 49.1782 116.888 48.9448 117.652 48.7014C118.235 48.5155 118.831 48.322 119.437 48.1187C119.733 48.0192 120.039 48.2343 120.12 48.5992ZM69.6372 49.4129C69.7128 49.0463 70.0155 48.8246 70.3133 48.9177C71.7178 49.3567 73.1265 49.7581 74.5356 50.1215C74.8363 50.199 75.0291 50.5619 74.9661 50.9321C74.9031 51.3022 74.6082 51.5394 74.3075 51.4619C72.8831 51.0946 71.4592 50.6888 70.0395 50.2451C69.7417 50.1521 69.5616 49.7794 69.6372 49.4129ZM111.376 51.158C111.433 51.5296 111.234 51.8878 110.932 51.958C109.365 52.3226 107.791 52.6422 106.212 52.9142C105.908 52.9666 105.627 52.7055 105.584 52.331C105.542 51.9564 105.754 51.6103 106.058 51.5579C107.619 51.289 109.175 50.9729 110.726 50.6123C111.028 50.5421 111.319 50.7864 111.376 51.158ZM78.1552 51.6675C78.2053 51.2943 78.4916 51.0418 78.7947 51.1034C80.2294 51.395 81.6603 51.6463 83.0836 51.8565C83.3886 51.9015 83.6062 52.2424 83.5696 52.6179C83.533 52.9934 83.2561 53.2613 82.951 53.2162C81.5113 53.0036 80.0641 52.7495 78.6135 52.4546C78.3103 52.393 78.1052 52.0406 78.1552 51.6675ZM101.964 52.842C101.991 53.2187 101.765 53.5512 101.459 53.5847C99.87 53.7586 98.2774 53.882 96.6818 53.9521C96.3747 53.9656 96.1169 53.6701 96.106 53.2922C96.095 52.9142 96.335 52.5969 96.6421 52.5834C98.2175 52.5142 99.7906 52.3924 101.36 52.2206C101.666 52.1871 101.936 52.4653 101.964 52.842ZM86.8001 53.0027C86.8225 52.6256 87.089 52.3421 87.3954 52.3697C88.1187 52.4347 88.8388 52.4886 89.5551 52.5314C90.3425 52.5784 91.1296 52.6114 91.9165 52.6306C92.2236 52.6381 92.4677 52.9507 92.4616 53.3288C92.4555 53.7069 92.2015 54.0074 91.8944 53.9999C91.097 53.9804 90.2993 53.947 89.5012 53.8993C88.7757 53.856 88.0466 53.8014 87.3144 53.7356C87.008 53.708 86.7777 53.3799 86.8001 53.0027Z" fill="#F9C255"/>
</svg>
