<svg width="36" height="24" viewBox="0 0 36 24" fill="none" xmlns="http://www.w3.org/2000/svg">
<g clip-path="url(#clip0_5499_170291)">
<path d="M34.4416 3.74788C34.2446 3.01992 33.8595 2.35661 33.3249 1.82457C32.7904 1.29254 32.1253 0.910504 31.3965 0.716839C28.721 0 17.9995 0 17.9995 0C17.9995 0 7.27511 0 4.60531 0.716839C3.87877 0.912143 3.21633 1.29496 2.68436 1.82694C2.15238 2.35891 1.76957 3.02135 1.57426 3.74788C0.857422 6.42051 0.857422 12 0.857422 12C0.857422 12 0.857422 17.5795 1.57426 20.2521C1.76957 20.9786 2.15238 21.6411 2.68436 22.1731C3.21633 22.705 3.87877 23.0879 4.60531 23.2832C7.27793 23.9887 17.9995 23.9887 17.9995 23.9887C17.9995 23.9887 28.7238 23.9887 31.3965 23.2719C32.124 23.0792 32.7882 22.6989 33.3226 22.1689C33.857 21.639 34.2428 20.978 34.4416 20.2521C35.1556 17.5795 35.1556 12 35.1556 12C35.1556 12 35.1415 6.42051 34.4416 3.74788ZM14.5705 17.1421V6.85795L23.4802 12L14.5705 17.1421Z" fill="#4F4F4F"/>
</g>
<defs>
<clipPath id="clip0_5499_170291">
<rect width="34.2841" height="24" fill="white" transform="translate(0.857422)"/>
</clipPath>
</defs>
</svg>
