<svg width="25" height="24" viewBox="0 0 25 24" fill="none" xmlns="http://www.w3.org/2000/svg">
<g clip-path="url(#clip0_3498_443)">
<path d="M24.2852 12C24.2852 5.37258 18.9126 0 12.2852 0C5.65773 0 0.285156 5.37258 0.285156 12C0.285156 17.9895 4.67336 22.954 10.4102 23.8542V15.4688H7.36328V12H10.4102V9.35625C10.4102 6.34875 12.2017 4.6875 14.9427 4.6875C16.2552 4.6875 17.6289 4.92188 17.6289 4.92188V7.875H16.1158C14.6252 7.875 14.1602 8.80008 14.1602 9.75V12H17.4883L16.9562 15.4688H14.1602V23.8542C19.897 22.954 24.2852 17.9895 24.2852 12Z" fill="black" fill-opacity="0.7"/>
</g>
<defs>
<clipPath id="clip0_3498_443">
<rect width="24" height="24" fill="white" transform="translate(0.285156)"/>
</clipPath>
</defs>
</svg>
