<svg width="155" height="60" viewBox="0 0 155 60" fill="none" xmlns="http://www.w3.org/2000/svg">
<g clip-path="url(#clip0_3498_499)">
<path d="M140 10H15C12.2386 10 10 12.2386 10 15V45C10 47.7614 12.2386 50 15 50H140C142.761 50 145 47.7614 145 45V15C145 12.2386 142.761 10 140 10Z" fill="black"/>
<path d="M140 10.8C141.114 10.8 142.182 11.2425 142.97 12.0302C143.758 12.8178 144.2 13.8861 144.2 15V45C144.2 46.1139 143.758 47.1822 142.97 47.9698C142.182 48.7575 141.114 49.2 140 49.2H15C13.8861 49.2 12.8178 48.7575 12.0302 47.9698C11.2425 47.1822 10.8 46.1139 10.8 45V15C10.8 13.8861 11.2425 12.8178 12.0302 12.0302C12.8178 11.2425 13.8861 10.8 15 10.8H140ZM140 10H15C13.6739 10 12.4021 10.5268 11.4645 11.4645C10.5268 12.4021 10 13.6739 10 15V45C10 46.3261 10.5268 47.5979 11.4645 48.5355C12.4021 49.4732 13.6739 50 15 50H140C141.326 50 142.598 49.4732 143.536 48.5355C144.473 47.5979 145 46.3261 145 45V15C145 13.6739 144.473 12.4021 143.536 11.4645C142.598 10.5268 141.326 10 140 10Z" fill="#A6A6A6"/>
<path d="M57.42 20.24C57.4364 20.6067 57.3785 20.9729 57.2496 21.3167C57.1207 21.6604 56.9235 21.9745 56.67 22.24C56.3859 22.5333 56.0431 22.7633 55.664 22.9149C55.2849 23.0666 54.878 23.1364 54.47 23.12C54.0597 23.1291 53.6518 23.054 53.2717 22.8991C52.8916 22.7443 52.5472 22.5132 52.26 22.22C51.6773 21.6239 51.3511 20.8235 51.3511 19.99C51.3511 19.1564 51.6773 18.356 52.26 17.76C52.7055 17.3246 53.2697 17.0307 53.8818 16.9151C54.4938 16.7994 55.1264 16.8672 55.7 17.11C56.0606 17.2582 56.3823 17.4874 56.64 17.78L56.11 18.31C55.9114 18.0707 55.6598 17.8811 55.3751 17.7561C55.0904 17.6311 54.7805 17.5742 54.47 17.59C54.078 17.5927 53.6927 17.6914 53.3477 17.8774C53.0026 18.0634 52.7084 18.3311 52.4907 18.6571C52.273 18.9831 52.1385 19.3574 52.0989 19.7474C52.0593 20.1374 52.1158 20.5311 52.2635 20.8942C52.4112 21.2573 52.6456 21.5787 52.9462 21.8303C53.2468 22.0819 53.6044 22.256 53.9878 22.3375C54.3713 22.419 54.7688 22.4053 55.1457 22.2976C55.5226 22.19 55.8675 21.9916 56.15 21.72C56.4555 21.3851 56.6326 20.9529 56.65 20.5H54.47V19.78H57.38C57.4028 19.9323 57.4161 20.086 57.42 20.24Z" fill="white" stroke="white" stroke-width="0.2" stroke-miterlimit="10"/>
<path d="M62 17.74H59.3V19.64H61.76V20.36H59.3V22.26H62V23H58.52V17H62V17.74Z" fill="white" stroke="white" stroke-width="0.2" stroke-miterlimit="10"/>
<path d="M65.2801 23H64.5101V17.74H62.8301V17H67.0001V17.74H65.2801V23Z" fill="white" stroke="white" stroke-width="0.2" stroke-miterlimit="10"/>
<path d="M69.9399 23V17H70.7099V23H69.9399Z" fill="white" stroke="white" stroke-width="0.2" stroke-miterlimit="10"/>
<path d="M74.1302 23H73.3602V17.74H71.6802V17H75.8002V17.74H74.1302V23Z" fill="white" stroke="white" stroke-width="0.2" stroke-miterlimit="10"/>
<path d="M83.6102 22.22C83.3213 22.5091 82.9784 22.7384 82.6009 22.8948C82.2234 23.0513 81.8188 23.1318 81.4102 23.1318C81.0015 23.1318 80.5969 23.0513 80.2194 22.8948C79.8419 22.7384 79.499 22.5091 79.2102 22.22C78.6448 21.6191 78.3301 20.8251 78.3301 20C78.3301 19.175 78.6448 18.381 79.2102 17.78C79.4928 17.4828 79.8346 17.2483 80.2136 17.0915C80.5925 16.9347 81.0002 16.8593 81.4102 16.87C81.8196 16.8635 82.2259 16.9409 82.6043 17.0974C82.9826 17.2539 83.325 17.4862 83.6102 17.78C83.8977 18.0725 84.1237 18.4197 84.2749 18.8009C84.426 19.1822 84.4992 19.59 84.4902 20C84.5033 20.4106 84.4319 20.8195 84.2806 21.2014C84.1292 21.5832 83.901 21.9299 83.6102 22.22ZM79.7802 21.72C79.9932 21.9359 80.247 22.1073 80.5268 22.2243C80.8066 22.3413 81.1069 22.4015 81.4102 22.4015C81.7135 22.4015 82.0137 22.3413 82.2935 22.2243C82.5733 22.1073 82.8271 21.9359 83.0402 21.72C83.4717 21.2511 83.7112 20.6372 83.7112 20C83.7112 19.3628 83.4717 18.7489 83.0402 18.28C82.8271 18.0641 82.5733 17.8927 82.2935 17.7757C82.0137 17.6587 81.7135 17.5985 81.4102 17.5985C81.1069 17.5985 80.8066 17.6587 80.5268 17.7757C80.247 17.8927 79.9932 18.0641 79.7802 18.28C79.3487 18.7489 79.1092 19.3628 79.1092 20C79.1092 20.6372 79.3487 21.2511 79.7802 21.72Z" fill="white" stroke="white" stroke-width="0.2" stroke-miterlimit="10"/>
<path d="M85.5801 23V17H86.5101L89.4301 21.67V20.51V17H90.2001V23H89.4001L86.3501 18.11V19.26V23H85.5801Z" fill="white" stroke="white" stroke-width="0.2" stroke-miterlimit="10"/>
<path d="M78.1401 31.75C77.2976 31.752 76.4745 32.0038 75.7751 32.4735C75.0756 32.9433 74.5312 33.6099 74.2106 34.389C73.89 35.1682 73.8076 36.025 73.9739 36.8509C74.1402 37.6769 74.5477 38.435 75.1449 39.0294C75.7421 39.6237 76.5021 40.0277 77.3288 40.1901C78.1556 40.3525 79.0119 40.2662 79.7896 39.9419C80.5672 39.6177 81.2313 39.0701 81.6977 38.3684C82.1642 37.6668 82.4121 36.8426 82.4101 36C82.4183 35.438 82.3132 34.88 82.1013 34.3594C81.8893 33.8388 81.5748 33.3661 81.1764 32.9696C80.7779 32.573 80.3038 32.2607 79.7822 32.0512C79.2606 31.8417 78.7021 31.7393 78.1401 31.75ZM78.1401 38.58C77.6237 38.6162 77.1083 38.4961 76.6611 38.2354C76.2138 37.9748 75.8553 37.5856 75.6321 37.1185C75.409 36.6514 75.3315 36.1279 75.4098 35.6162C75.4881 35.1045 75.7185 34.6281 76.0711 34.2491C76.4237 33.87 76.8821 33.6058 77.3869 33.4908C77.8916 33.3758 78.4193 33.4153 78.9013 33.6041C79.3833 33.793 79.7973 34.1225 80.0896 34.5498C80.3819 34.977 80.5388 35.4824 80.5401 36C80.5562 36.3281 80.5065 36.656 80.3938 36.9645C80.2812 37.273 80.1079 37.5558 79.8842 37.7962C79.6606 38.0367 79.391 38.2299 79.0914 38.3645C78.7919 38.4992 78.4684 38.5724 78.1401 38.58ZM68.8201 31.75C67.9776 31.752 67.1545 32.0038 66.4551 32.4735C65.7556 32.9433 65.2112 33.6099 64.8906 34.389C64.57 35.1682 64.4876 36.025 64.6539 36.8509C64.8202 37.6769 65.2277 38.435 65.8249 39.0294C66.4221 39.6237 67.1821 40.0277 68.0088 40.1901C68.8356 40.3525 69.6919 40.2662 70.4696 39.9419C71.2472 39.6177 71.9113 39.0701 72.3777 38.3684C72.8442 37.6668 73.0921 36.8426 73.0901 36C73.0982 35.438 72.9932 34.88 72.7813 34.3594C72.5693 33.8388 72.2548 33.3661 71.8564 32.9696C71.4579 32.573 70.9838 32.2607 70.4622 32.0512C69.9406 31.8417 69.3821 31.7393 68.8201 31.75ZM68.8201 38.58C68.3037 38.6162 67.7883 38.4961 67.3411 38.2354C66.8938 37.9748 66.5353 37.5856 66.3121 37.1185C66.089 36.6514 66.0115 36.1279 66.0898 35.6162C66.1681 35.1045 66.3985 34.6281 66.7511 34.2491C67.1037 33.87 67.5621 33.6058 68.0669 33.4908C68.5716 33.3758 69.0993 33.4153 69.5813 33.6041C70.0633 33.793 70.4773 34.1225 70.7696 34.5498C71.0619 34.977 71.2188 35.4824 71.2201 36C71.2362 36.3281 71.1865 36.656 71.0738 36.9645C70.9612 37.273 70.7879 37.5558 70.5642 37.7962C70.3406 38.0367 70.071 38.2299 69.7714 38.3645C69.4719 38.4992 69.1484 38.5724 68.8201 38.58ZM57.7401 33.06V34.86H62.0601C61.9924 35.7078 61.6399 36.5078 61.0601 37.13C60.6268 37.5716 60.1056 37.9172 59.5302 38.1446C58.9549 38.3719 58.3382 38.476 57.7201 38.45C56.4471 38.45 55.2262 37.9443 54.326 37.0442C53.4258 36.144 52.9201 34.9231 52.9201 33.65C52.9201 32.377 53.4258 31.1561 54.326 30.2559C55.2262 29.3558 56.4471 28.85 57.7201 28.85C58.9405 28.8319 60.119 29.2954 61.0001 30.14L62.2701 28.87C61.6741 28.2806 60.9664 27.8159 60.1886 27.5034C59.4107 27.1909 58.5783 27.0368 57.7401 27.05C56.8511 27.0154 55.9643 27.1607 55.1327 27.477C54.3012 27.7934 53.5421 28.2743 52.9009 28.8911C52.2596 29.5078 51.7495 30.2476 51.4011 31.0662C51.0527 31.8848 50.873 32.7654 50.873 33.655C50.873 34.5447 51.0527 35.4252 51.4011 36.2438C51.7495 37.0625 52.2596 37.8023 52.9009 38.419C53.5421 39.0358 54.3012 39.5167 55.1327 39.8331C55.9643 40.1494 56.8511 40.2946 57.7401 40.26C58.5955 40.2942 59.4485 40.147 60.243 39.8282C61.0375 39.5094 61.7556 39.0261 62.3501 38.41C63.4002 37.2565 63.9598 35.7392 63.9101 34.18C63.9137 33.8048 63.8836 33.4299 63.8201 33.06H57.7401ZM103.05 34.46C102.789 33.6928 102.302 33.0228 101.652 32.5389C101.002 32.055 100.22 31.7799 99.4101 31.75C98.8631 31.749 98.3217 31.8601 97.8193 32.0766C97.317 32.293 96.8644 32.6102 96.4895 33.0086C96.1146 33.4069 95.8254 33.8779 95.6397 34.3924C95.4541 34.907 95.3759 35.4541 95.4101 36C95.4016 36.9129 95.6885 37.804 96.2282 38.5403C96.7679 39.2766 97.5313 39.8185 98.4044 40.0852C99.2774 40.3518 100.213 40.3289 101.072 40.0198C101.931 39.7106 102.667 39.1319 103.17 38.37L101.72 37.37C101.504 37.7303 101.197 38.0278 100.831 38.2331C100.464 38.4383 100.05 38.5441 99.6301 38.54C99.1967 38.5579 98.768 38.4443 98.4003 38.2141C98.0327 37.9838 97.7432 37.6478 97.5701 37.25L103.26 34.9L103.05 34.46ZM97.2501 35.88C97.2298 35.5694 97.2717 35.2579 97.3734 34.9637C97.475 34.6694 97.6343 34.3985 97.842 34.1666C98.0497 33.9347 98.3015 33.7466 98.5828 33.6132C98.8641 33.4799 99.1691 33.404 99.4801 33.39C99.8023 33.3704 100.123 33.4462 100.402 33.6081C100.682 33.77 100.907 34.0107 101.05 34.3L97.2501 35.88ZM92.6301 40H94.5001V27.5H92.6301V40ZM89.5701 32.7H89.5001C89.2207 32.3819 88.876 32.1278 88.4894 31.9553C88.1028 31.7827 87.6835 31.6956 87.2601 31.7C86.1673 31.753 85.1367 32.2245 84.3821 33.0166C83.6274 33.8088 83.2064 34.8609 83.2064 35.955C83.2064 37.0491 83.6274 38.1013 84.3821 38.8935C85.1367 39.6856 86.1673 40.1571 87.2601 40.21C87.6841 40.2185 88.1047 40.1333 88.4919 39.9605C88.8791 39.7876 89.2234 39.5314 89.5001 39.21H89.5701V39.82C89.5701 41.45 88.7001 42.32 87.3001 42.32C86.8324 42.3098 86.3783 42.1607 85.9955 41.8919C85.6127 41.623 85.3185 41.2465 85.1501 40.81L83.5301 41.48C83.8296 42.2323 84.3504 42.8759 85.0235 43.3259C85.6966 43.7758 86.4905 44.0109 87.3001 44C89.4901 44 91.3001 42.71 91.3001 39.57V32H89.5701V32.7ZM87.4201 38.58C86.7649 38.5392 86.1499 38.2501 85.7004 37.7717C85.2509 37.2933 85.0006 36.6615 85.0006 36.005C85.0006 35.3486 85.2509 34.7168 85.7004 34.2384C86.1499 33.76 86.7649 33.4709 87.4201 33.43C87.7403 33.4439 88.0545 33.522 88.344 33.6597C88.6334 33.7974 88.8922 33.9919 89.1049 34.2317C89.3176 34.4715 89.4799 34.7516 89.5822 35.0554C89.6844 35.3592 89.7245 35.6804 89.7001 36C89.7274 36.3207 89.6893 36.6436 89.5883 36.9492C89.4872 37.2548 89.3252 37.5367 89.1121 37.7778C88.8989 38.019 88.6391 38.2144 88.3483 38.3523C88.0575 38.4902 87.7417 38.5677 87.4201 38.58ZM111.81 27.5H107.33V40H109.2V35.26H111.81C112.343 35.2983 112.878 35.2264 113.382 35.0488C113.886 34.8711 114.348 34.5916 114.739 34.2275C115.13 33.8635 115.442 33.4228 115.655 32.9329C115.869 32.443 115.979 31.9144 115.979 31.38C115.979 30.8457 115.869 30.3171 115.655 29.8272C115.442 29.3373 115.13 28.8966 114.739 28.5326C114.348 28.1685 113.886 27.889 113.382 27.7113C112.878 27.5337 112.343 27.4618 111.81 27.5ZM111.81 33.5H109.2V29.24H111.85C112.131 29.24 112.409 29.2954 112.669 29.4029C112.929 29.5105 113.165 29.6681 113.363 29.8668C113.562 30.0656 113.72 30.3015 113.827 30.5611C113.935 30.8207 113.99 31.099 113.99 31.38C113.99 31.6611 113.935 31.9394 113.827 32.199C113.72 32.4586 113.562 32.6945 113.363 32.8933C113.165 33.092 112.929 33.2496 112.669 33.3571C112.409 33.4647 112.131 33.52 111.85 33.52L111.81 33.5ZM123.35 31.71C122.669 31.6681 121.991 31.8266 121.399 32.1661C120.807 32.5055 120.328 33.011 120.02 33.62L121.67 34.31C121.837 34.0094 122.087 33.7636 122.39 33.6021C122.694 33.4406 123.038 33.3704 123.38 33.4C123.617 33.3723 123.858 33.3921 124.088 33.4584C124.317 33.5246 124.531 33.6359 124.718 33.7858C124.904 33.9356 125.058 34.1211 125.172 34.3313C125.286 34.5415 125.356 34.7722 125.38 35.01V35.13C124.779 34.814 124.109 34.6492 123.43 34.65C121.65 34.65 119.83 35.65 119.83 37.47C119.848 37.8569 119.943 38.2362 120.11 38.5856C120.277 38.9349 120.513 39.2471 120.803 39.5037C121.093 39.7602 121.432 39.9558 121.799 40.0788C122.166 40.2019 122.554 40.2499 122.94 40.22C123.409 40.246 123.877 40.1467 124.295 39.9323C124.714 39.7179 125.067 39.3962 125.32 39H125.38V40H127.18V35.19C127.18 33 125.52 31.73 123.39 31.73L123.35 31.71ZM123.12 38.56C122.51 38.56 121.66 38.25 121.66 37.5C121.66 36.5 122.72 36.16 123.66 36.16C124.254 36.1454 124.841 36.2904 125.36 36.58C125.297 37.1231 125.04 37.625 124.635 37.9928C124.231 38.3605 123.707 38.5691 123.16 38.58L123.12 38.56ZM133.74 32L131.6 37.42H131.54L129.32 32H127.32L130.65 39.58L128.75 43.79H130.7L135.82 32H133.74ZM116.94 40H118.8V27.5H116.94V40Z" fill="white"/>
<path d="M20.4401 17.54C20.1106 17.9296 19.9424 18.4304 19.9701 18.94V41.06C19.9361 41.5704 20.105 42.0735 20.4401 42.46L20.5101 42.54L32.9001 30.15V29.85L20.5101 17.47L20.4401 17.54Z" fill="url(#paint0_linear_3498_499)"/>
<path d="M36.9999 34.28L32.8999 30.15V29.85L36.9999 25.72L37.0899 25.78L41.9999 28.56C43.3999 29.35 43.3999 30.65 41.9999 31.45L37.1099 34.23L36.9999 34.28Z" fill="url(#paint1_linear_3498_499)"/>
<path d="M37.1199 34.22L32.8999 30L20.4399 42.46C20.7225 42.7115 21.0842 42.8562 21.4623 42.869C21.8404 42.8818 22.211 42.7619 22.5099 42.53L37.1199 34.22Z" fill="url(#paint2_linear_3498_499)"/>
<path d="M37.1199 25.78L22.5099 17.48C22.213 17.2449 21.8426 17.122 21.464 17.133C21.0854 17.144 20.7228 17.2881 20.4399 17.54L32.8999 30L37.1199 25.78Z" fill="url(#paint3_linear_3498_499)"/>
<path opacity="0.2" d="M36.9999 34.13L22.5099 42.38C22.2219 42.5974 21.8708 42.715 21.5099 42.715C21.1491 42.715 20.798 42.5974 20.5099 42.38L20.4399 42.45L20.5099 42.53C20.798 42.7474 21.1491 42.865 21.5099 42.865C21.8708 42.865 22.2219 42.7474 22.5099 42.53L37.1199 34.22L36.9999 34.13Z" fill="black"/>
<path opacity="0.12" d="M20.4399 42.32C20.1187 41.9234 19.9613 41.419 19.9999 40.91V41.06C19.9659 41.5704 20.1348 42.0736 20.4699 42.46L20.5399 42.39L20.4399 42.32Z" fill="black"/>
<path opacity="0.12" d="M42 31.3L37 34.13L37.09 34.22L42 31.44C42.2898 31.3174 42.5413 31.119 42.7278 30.8656C42.9143 30.6122 43.0291 30.3132 43.06 30C42.9975 30.2846 42.869 30.5505 42.6849 30.7763C42.5007 31.0021 42.2662 31.1815 42 31.3Z" fill="black"/>
<path opacity="0.25" d="M22.5102 17.62L42.0002 28.7C42.2664 28.8185 42.501 28.9979 42.6851 29.2237C42.8692 29.4495 42.9977 29.7154 43.0602 30C43.0293 29.6868 42.9146 29.3878 42.728 29.1344C42.5415 28.881 42.29 28.6825 42.0002 28.56L22.5102 17.48C21.1202 16.68 19.9702 17.34 19.9702 18.94V19.09C20.0002 17.49 21.1202 16.83 22.5102 17.62Z" fill="white"/>
</g>
<defs>
<linearGradient id="paint0_linear_3498_499" x1="31.8001" y1="18.71" x2="15.0201" y2="35.49" gradientUnits="userSpaceOnUse">
<stop stop-color="#00A0FF"/>
<stop offset="0.01" stop-color="#00A1FF"/>
<stop offset="0.26" stop-color="#00BEFF"/>
<stop offset="0.51" stop-color="#00D2FF"/>
<stop offset="0.76" stop-color="#00DFFF"/>
<stop offset="1" stop-color="#00E3FF"/>
</linearGradient>
<linearGradient id="paint1_linear_3498_499" x1="43.8299" y1="30" x2="19.6399" y2="30" gradientUnits="userSpaceOnUse">
<stop stop-color="#FFE000"/>
<stop offset="0.41" stop-color="#FFBD00"/>
<stop offset="0.78" stop-color="#FFA500"/>
<stop offset="1" stop-color="#FF9C00"/>
</linearGradient>
<linearGradient id="paint2_linear_3498_499" x1="34.8299" y1="32.3" x2="12.0699" y2="55.05" gradientUnits="userSpaceOnUse">
<stop stop-color="#FF3A44"/>
<stop offset="1" stop-color="#C31162"/>
</linearGradient>
<linearGradient id="paint3_linear_3498_499" x1="17.2999" y1="10.18" x2="27.4599" y2="20.34" gradientUnits="userSpaceOnUse">
<stop stop-color="#32A071"/>
<stop offset="0.07" stop-color="#2DA771"/>
<stop offset="0.48" stop-color="#15CF74"/>
<stop offset="0.8" stop-color="#06E775"/>
<stop offset="1" stop-color="#00F076"/>
</linearGradient>
<clipPath id="clip0_3498_499">
<rect width="155" height="60" fill="white"/>
</clipPath>
</defs>
</svg>
