<svg width="25" height="24" viewBox="0 0 25 24" fill="none" xmlns="http://www.w3.org/2000/svg">
<g clip-path="url(#clip0_3498_448)">
<path d="M12.2852 2.16207C15.4895 2.16207 15.8687 2.17445 17.1343 2.23209C18.3042 2.28544 18.9396 2.48074 19.3626 2.64508C19.8845 2.83723 20.3566 3.14407 20.744 3.54298C21.1429 3.93045 21.4498 4.40251 21.6419 4.92437C21.8063 5.34736 22.0016 5.9828 22.0549 7.1527C22.1126 8.41834 22.1249 8.79751 22.1249 12.0019C22.1249 15.2062 22.1126 15.5854 22.0549 16.851C22.0016 18.0209 21.8063 18.6564 21.6419 19.0793C21.4421 19.5967 21.1362 20.0666 20.744 20.4588C20.3518 20.851 19.8819 21.1569 19.3645 21.3567C18.9416 21.5211 18.3061 21.7164 17.1362 21.7697C15.8711 21.8274 15.4914 21.8397 12.2871 21.8397C9.08271 21.8397 8.70307 21.8274 7.4379 21.7697C6.26801 21.7164 5.63257 21.5211 5.20958 21.3567C4.68772 21.1646 4.21565 20.8577 3.82819 20.4588C3.42928 20.0714 3.12243 19.5993 2.93028 19.0774C2.76594 18.6544 2.57064 18.019 2.51729 16.8491C2.45966 15.5835 2.44727 15.2043 2.44727 12C2.44727 8.7956 2.45966 8.41643 2.51729 7.15079C2.57064 5.9809 2.76594 5.34546 2.93028 4.92247C3.12243 4.40061 3.42928 3.92854 3.82819 3.54108C4.21565 3.14217 4.68772 2.83532 5.20958 2.64317C5.63257 2.47883 6.26801 2.28353 7.4379 2.23018C8.70354 2.17255 9.08271 2.16016 12.2871 2.16016M12.2871 -0.00195312C9.02793 -0.00195312 8.61923 0.0118608 7.3393 0.0704508C6.05937 0.129041 5.18814 0.333391 4.42457 0.630152C3.62392 0.931415 2.89859 1.40364 2.29913 2.01392C1.68971 2.61362 1.2183 3.33893 0.917738 4.13936C0.618595 4.90294 0.415674 5.77512 0.35756 7.05219C0.299446 8.32926 0.285156 8.74082 0.285156 12C0.285156 15.2591 0.29897 15.6678 0.35756 16.9477C0.41615 18.2276 0.618595 19.097 0.915356 19.8605C1.21662 20.6612 1.68885 21.3865 2.29913 21.986C2.8987 22.5962 3.62398 23.0686 4.42457 23.3702C5.18671 23.6665 6.06032 23.8694 7.3374 23.928C8.61447 23.9866 9.02603 24 12.2852 24C15.5443 24 15.953 23.9861 17.2329 23.928C18.5128 23.8699 19.3822 23.6665 20.1457 23.3702C20.9429 23.0618 21.6668 22.5904 22.2712 21.986C22.8756 21.3816 23.347 20.6577 23.6554 19.8605C23.9517 19.0984 24.1546 18.2248 24.2132 16.9477C24.2718 15.6706 24.2852 15.2591 24.2852 12C24.2852 8.74082 24.2713 8.33212 24.2132 7.05219C24.1551 5.77226 23.9517 4.90294 23.6554 4.13936C23.3538 3.33878 22.8814 2.61349 22.2712 2.01392C21.6715 1.4045 20.9462 0.933099 20.1457 0.632534C19.3822 0.333391 18.51 0.13047 17.2329 0.0723562C15.9558 0.0142425 15.5443 -4.77582e-05 12.2852 -4.77582e-05L12.2871 -0.00195312Z" fill="black" fill-opacity="0.7"/>
<path d="M12.285 5.83801C11.0662 5.83801 9.8747 6.19944 8.86128 6.8766C7.84786 7.55376 7.05801 8.51623 6.5916 9.64229C6.1252 10.7684 6.00319 12.0074 6.24101 13.2029C6.47882 14.3983 7.06579 15.4963 7.92766 16.3581C8.78954 17.2199 9.88763 17.8068 11.0831 18.0445C12.2785 18.2823 13.5176 18.1601 14.6436 17.6937C15.7696 17.2272 16.732 16.4372 17.4091 15.4238C18.0862 14.4103 18.4475 13.2188 18.4474 12C18.4475 11.1907 18.2881 10.3894 17.9785 9.64171C17.6688 8.89404 17.2149 8.21471 16.6426 7.6425C16.0703 7.07029 15.391 6.61642 14.6433 6.3068C13.8956 5.99718 13.0943 5.83789 12.285 5.83801ZM12.285 15.9998C11.4936 15.9998 10.72 15.7651 10.062 15.3255C9.404 14.8858 8.89115 14.2609 8.5883 13.5298C8.28546 12.7986 8.20622 11.9941 8.36061 11.2179C8.515 10.4418 8.89608 9.7288 9.45567 9.16921C10.0153 8.60963 10.7282 8.22854 11.5044 8.07415C12.2806 7.91976 13.0851 7.999 13.8162 8.30185C14.5473 8.60469 15.1723 9.11755 15.6119 9.77555C16.0516 10.4336 16.2863 11.2072 16.2863 11.9985C16.2863 13.0597 15.8647 14.0775 15.1143 14.8279C14.3639 15.5782 13.3462 15.9998 12.285 15.9998Z" fill="black" fill-opacity="0.7"/>
<path d="M18.691 7.03414C19.4862 7.03414 20.1309 6.38944 20.1309 5.59416C20.1309 4.79888 19.4862 4.15417 18.691 4.15417C17.8957 4.15417 17.251 4.79888 17.251 5.59416C17.251 6.38944 17.8957 7.03414 18.691 7.03414Z" fill="black" fill-opacity="0.7"/>
</g>
<defs>
<clipPath id="clip0_3498_448">
<rect width="24" height="24" fill="white" transform="translate(0.285156)"/>
</clipPath>
</defs>
</svg>
