<svg width="145" height="40" viewBox="0 0 145 40" fill="none" xmlns="http://www.w3.org/2000/svg">
<path d="M21.25 32H15.75L9.76562 22.375L7.71875 23.8438V32H2.875V9.15625H7.71875V19.6094C8.04167 19.1615 8.35938 18.7135 8.67188 18.2656C8.98438 17.8177 9.30208 17.3698 9.625 16.9219L15.8125 9.15625H21.1875L13.2188 19.2656L21.25 32ZM52.1875 9.15625L46.375 32H40.8594L37.7656 20C37.7031 19.7708 37.6198 19.4219 37.5156 18.9531C37.4115 18.4844 37.3021 17.974 37.1875 17.4219C37.0729 16.8594 36.9688 16.3333 36.875 15.8438C36.7917 15.3438 36.7344 14.9479 36.7031 14.6562C36.6719 14.9479 36.6094 15.3385 36.5156 15.8281C36.4323 16.3177 36.3333 16.8385 36.2188 17.3906C36.1146 17.9427 36.0104 18.4583 35.9062 18.9375C35.8021 19.4167 35.7188 19.7812 35.6562 20.0312L32.5781 32H27.0781L21.25 9.15625H26.0156L28.9375 21.625C29.0208 22 29.1146 22.4479 29.2188 22.9688C29.3333 23.4896 29.4427 24.0365 29.5469 24.6094C29.6615 25.1719 29.7604 25.7188 29.8438 26.25C29.9375 26.7708 30.0052 27.224 30.0469 27.6094C30.099 27.2135 30.1667 26.7552 30.25 26.2344C30.3333 25.7031 30.4219 25.1667 30.5156 24.625C30.6198 24.0729 30.724 23.5625 30.8281 23.0938C30.9323 22.625 31.026 22.2448 31.1094 21.9531L34.4375 9.15625H39.0156L42.3438 21.9531C42.4167 22.2344 42.5 22.6146 42.5938 23.0938C42.6979 23.5625 42.8021 24.0729 42.9062 24.625C43.0104 25.1771 43.1042 25.7188 43.1875 26.25C43.2812 26.7708 43.349 27.224 43.3906 27.6094C43.4635 27.0885 43.5625 26.4583 43.6875 25.7188C43.8229 24.9688 43.9635 24.224 44.1094 23.4844C44.2656 22.7448 44.401 22.125 44.5156 21.625L47.4219 9.15625H52.1875ZM55.0625 32V9.15625H59.9062V32H55.0625Z" fill="black"/>
<path d="M87.0092 32.378L87.0007 32.3698C86.7369 32.106 86.4905 31.8252 86.2632 31.5294C85.262 30.2232 84.6614 28.6545 84.5342 27.0137C84.407 25.3728 84.7588 23.7303 85.5468 22.2855C85.5471 22.2847 85.5471 22.2837 85.5468 22.2829C85.5561 22.2662 85.5655 22.2486 85.5751 22.2319C84.9977 23.172 84.1588 23.9234 83.161 24.3943C82.1633 24.8652 81.0499 25.035 79.9571 24.8831C78.8643 24.7312 77.8395 24.2641 77.008 23.539C76.1765 22.8138 75.5744 21.862 75.2752 20.8L75.2733 20.7921C75.2619 20.7518 75.2509 20.7113 75.2406 20.6704V20.6684C74.9389 19.5938 74.3267 18.6321 73.4809 17.9037C72.6351 17.1753 71.5933 16.7126 70.4857 16.5735C69.3782 16.4345 68.2543 16.6253 67.2547 17.122C66.2551 17.6187 65.4242 18.3993 64.8662 19.366V19.3685C64.1276 20.6453 63.9173 22.1602 64.2802 23.5899V23.5933C64.2824 23.6024 64.2847 23.6115 64.2872 23.6217L64.2904 23.6331C64.2935 23.6461 64.2969 23.6589 64.3003 23.6716C64.3037 23.6844 64.3071 23.6974 64.3111 23.7102L64.3139 23.7216C64.3165 23.7309 64.3187 23.74 64.3216 23.7499V23.7533C64.8818 25.7918 65.89 27.6795 67.2727 29.2786C68.6555 30.8777 70.3778 32.148 72.314 32.9966C75.2609 34.2903 78.5611 34.5389 81.6685 33.7012C82.0283 33.6043 82.4036 33.5795 82.773 33.6282C83.1423 33.6768 83.4984 33.7981 83.8208 33.9848L83.8324 33.9914C84.2654 34.2401 84.7291 34.4309 85.2118 34.5587C86.167 34.8119 87.1719 34.8095 88.1259 34.5518C88.5614 34.4353 88.9814 34.2676 89.3773 34.0521C88.4981 33.6334 87.6972 33.0672 87.0092 32.378ZM71.8114 21.5222C71.6233 21.8479 71.3136 22.0856 70.9503 22.1829C70.587 22.2803 70.1999 22.2293 69.8741 22.0413C69.8287 22.0152 69.7847 21.9868 69.7422 21.9562C69.5218 21.7938 69.353 21.5711 69.2564 21.315C69.1597 21.0588 69.1392 20.7802 69.1974 20.5126C69.2557 20.2451 69.3901 20.0002 69.5844 19.8073C69.7788 19.6145 70.0249 19.4821 70.2928 19.426C70.5608 19.37 70.8393 19.3927 71.0947 19.4914C71.35 19.5902 71.5714 19.7607 71.7319 19.9825C71.8925 20.2042 71.9854 20.4677 71.9995 20.7411C72.0136 21.0146 71.9483 21.2862 71.8114 21.5233V21.5222Z" fill="#2835BB"/>
<path d="M92.0271 17.9055C92.4153 20.4775 92.085 23.1067 91.0726 25.5028C90.8422 26.0481 90.5782 26.5786 90.2821 27.0912C89.6808 28.1347 88.9491 29.0974 88.1046 29.956C87.6331 30.4361 87.1275 30.8816 86.592 31.2891C86.484 31.3714 86.3748 31.4518 86.2644 31.5305C85.2631 30.2243 84.6625 28.6556 84.5353 27.0148C84.4081 25.3739 84.7599 23.7314 85.5479 22.2866C85.5482 22.2858 85.5482 22.2849 85.5479 22.284C85.6182 22.1674 85.6867 22.049 85.7532 21.9289C86.1998 21.12 86.5461 20.2597 86.7846 19.3671C86.8791 19.0172 86.9556 18.6674 87.014 18.3176C87.4533 15.7297 86.9785 13.0695 85.671 10.7934C85.6706 10.7926 85.6701 10.7919 85.6696 10.7912C85.6571 10.769 85.6446 10.7475 85.6321 10.7259C85.6321 10.7253 85.6321 10.7246 85.6321 10.7239C85.3747 10.2812 85.0876 9.8565 84.7727 9.45266C84.6184 9.25411 84.4577 9.06076 84.2905 8.87261C83.1882 7.63445 81.8266 6.65447 80.3025 6.00244C81.8119 6.25093 83.2709 6.74313 84.6224 7.45979C84.7797 7.5428 84.936 7.62922 85.0912 7.71904C85.3323 7.85803 85.5677 8.00315 85.7975 8.15443C89.2775 10.4397 91.4468 14.0357 92.0271 17.9055Z" fill="#1A74CC"/>
<path d="M85.6324 10.7217C85.438 10.4073 85.1286 10.181 84.77 10.0909C84.4114 10.0009 84.0318 10.0542 83.7119 10.2395C82.4138 10.9878 80.8724 11.192 79.4242 10.8076C77.9761 10.4231 76.7389 9.48127 75.9829 8.18767C75.9707 8.16612 75.9585 8.14428 75.9458 8.12329C75.6289 7.59394 75.1481 7.18228 74.5762 6.95069C74.0044 6.71909 73.3726 6.68017 72.7766 6.83981C72.6673 6.86918 72.5598 6.90498 72.4547 6.94703L72.4604 6.94447C74.9336 5.89673 77.6527 5.57016 80.3036 6.0025C81.8269 6.65417 83.188 7.63344 84.2899 8.87068C84.4573 9.05864 84.618 9.25199 84.7721 9.45073C85.0873 9.85446 85.3747 10.2791 85.6324 10.7217Z" fill="#88E2E2"/>
<path d="M81.3089 21.0224C81.2172 21.3724 80.9954 21.6742 80.6886 21.8662C80.3819 22.0581 80.0134 22.1256 79.6586 22.055C79.3037 21.9844 78.9892 21.781 78.7793 21.4862C78.5694 21.1915 78.4799 20.8278 78.5292 20.4693C78.559 20.2807 78.6266 20.1 78.728 19.9381C78.8293 19.7763 78.9623 19.6365 79.119 19.5273C79.2756 19.4181 79.4527 19.3416 79.6397 19.3025C79.8266 19.2634 80.0195 19.2625 80.2068 19.2997C80.3941 19.337 80.572 19.4117 80.7297 19.5194C80.8874 19.6271 81.0218 19.7655 81.1247 19.9264C81.2276 20.0873 81.297 20.2673 81.3286 20.4556C81.3603 20.6439 81.3536 20.8367 81.3089 21.0224Z" fill="#2835BB"/>
<path d="M116.609 20.5469C116.609 22.3073 116.391 23.9115 115.953 25.3594C115.516 26.7969 114.849 28.0365 113.953 29.0781C113.068 30.1198 111.943 30.9219 110.578 31.4844C109.214 32.0365 107.599 32.3125 105.734 32.3125C103.87 32.3125 102.255 32.0365 100.891 31.4844C99.526 30.9219 98.3958 30.1198 97.5 29.0781C96.6146 28.0365 95.9531 26.7917 95.5156 25.3438C95.0781 23.8958 94.8594 22.2865 94.8594 20.5156C94.8594 18.151 95.2448 16.0938 96.0156 14.3438C96.7969 12.5833 97.9948 11.2188 99.6094 10.25C101.224 9.28125 103.276 8.79688 105.766 8.79688C108.245 8.79688 110.281 9.28125 111.875 10.25C113.479 11.2188 114.667 12.5833 115.438 14.3438C116.219 16.1042 116.609 18.1719 116.609 20.5469ZM99.9375 20.5469C99.9375 22.1406 100.135 23.5156 100.531 24.6719C100.938 25.8177 101.568 26.7031 102.422 27.3281C103.276 27.9427 104.38 28.25 105.734 28.25C107.109 28.25 108.224 27.9427 109.078 27.3281C109.932 26.7031 110.552 25.8177 110.938 24.6719C111.333 23.5156 111.531 22.1406 111.531 20.5469C111.531 18.151 111.083 16.2656 110.188 14.8906C109.292 13.5156 107.818 12.8281 105.766 12.8281C104.401 12.8281 103.286 13.1406 102.422 13.7656C101.568 14.3802 100.938 15.2656 100.531 16.4219C100.135 17.5677 99.9375 18.9427 99.9375 20.5469ZM141.609 32H135.453L125.516 14.7188H125.375C125.417 15.4375 125.453 16.1615 125.484 16.8906C125.516 17.6198 125.547 18.349 125.578 19.0781C125.609 19.7969 125.641 20.5208 125.672 21.25V32H121.344V9.15625H127.453L137.375 26.2656H137.484C137.464 25.5573 137.438 24.8542 137.406 24.1562C137.375 23.4583 137.344 22.7604 137.312 22.0625C137.292 21.3646 137.271 20.6667 137.25 19.9688V9.15625H141.609V32Z" fill="black"/>
</svg>
