<svg width="24" height="24" viewBox="0 0 24 24" fill="none" xmlns="http://www.w3.org/2000/svg">
<path d="M20.4498 20.4496H16.8937V14.8805C16.8937 13.5525 16.87 11.8429 15.0441 11.8429C13.1919 11.8429 12.9085 13.2899 12.9085 14.7838V20.4492H9.35238V8.99689H12.7663V10.562H12.8141C13.5102 9.37175 14.8046 8.66088 16.1825 8.71203C19.7868 8.71203 20.4514 11.0828 20.4514 14.167L20.4498 20.4496ZM5.33983 7.43144C4.20008 7.43164 3.27596 6.50786 3.27576 5.36812C3.27555 4.22837 4.19936 3.30426 5.33908 3.30406C6.47883 3.30386 7.40294 4.22764 7.40315 5.36738C7.40335 6.50712 6.47957 7.43124 5.33983 7.43144ZM7.11791 20.4496H3.55804V8.99689H7.11791V20.4496ZM22.2227 0.00163898H1.77105C0.80447 -0.00927056 0.0118025 0.764989 0 1.73157V22.2681C0.0113952 23.2351 0.803994 24.0101 1.77105 23.9999H22.2227C23.1917 24.012 23.9874 23.237 24.0008 22.2681V1.73008C23.987 0.761599 23.1912 -0.0126144 22.2227 0.000155731" fill="black" fill-opacity="0.7"/>
</svg>
