<svg width="73" height="82" viewBox="0 0 73 82" fill="none" xmlns="http://www.w3.org/2000/svg">
<path d="M0.750077 80.0317C0.215318 80.1698 -0.106295 80.7152 0.0317344 81.2499C0.169763 81.7847 0.715165 82.1063 1.24992 81.9683L0.750077 80.0317ZM64.7816 0.177479C64.3273 -0.136624 63.7044 -0.0230007 63.3903 0.431265L58.2717 7.83395C57.9576 8.28822 58.0713 8.9111 58.5255 9.22521C58.9798 9.53931 59.6027 9.42569 59.9168 8.97142L64.4667 2.39126L71.0468 6.94114C71.5011 7.25524 72.124 7.14162 72.4381 6.68735C72.7522 6.23309 72.6386 5.6102 72.1843 5.29609L64.7816 0.177479ZM1.24992 81.9683C31.2091 74.2354 48.1737 59.1482 57.1549 43.3426C66.1169 27.5708 67.0836 11.1647 65.1966 0.820546L63.2291 1.17945C65.0403 11.1087 64.1235 27.0306 55.416 42.3545C46.7277 57.6446 30.2368 72.4208 0.750077 80.0317L1.24992 81.9683Z" fill="#464B80" fill-opacity="0.4"/>
</svg>
