<svg width="24" height="24" viewBox="0 0 24 24" fill="none" xmlns="http://www.w3.org/2000/svg">
<g clip-path="url(#clip0_3498_433)">
<path fill-rule="evenodd" clip-rule="evenodd" d="M24.001 12C24.001 18.6274 18.6284 24 12.001 24C5.37356 24 0.000976562 18.6274 0.000976562 12C0.000976562 5.37258 5.37356 0 12.001 0C18.6284 0 24.001 5.37258 24.001 12ZM18.0368 10.0979C18.0368 13.9199 15.1268 18.3299 9.80481 18.3299C8.17281 18.3299 6.64881 17.8499 5.38281 17.0219C5.61081 17.0519 5.83881 17.0639 6.07281 17.0639C7.42881 17.0639 8.67681 16.6019 9.66681 15.8279C8.40081 15.8039 7.33281 14.9699 6.96681 13.8179C7.14681 13.8539 7.32681 13.8719 7.51281 13.8719C7.77681 13.8719 8.03481 13.8359 8.27481 13.7699C6.94881 13.4999 5.95281 12.3359 5.95281 10.9319V10.8959C6.34281 11.1119 6.78681 11.2439 7.26081 11.2559C6.48081 10.7399 5.97081 9.85193 5.97081 8.84993C5.97081 8.32193 6.11481 7.82393 6.36081 7.39793C7.78881 9.14993 9.91881 10.3019 12.3248 10.4219C12.2708 10.2119 12.2468 9.98993 12.2468 9.76193C12.2468 8.16593 13.5428 6.86993 15.1388 6.86993C15.9728 6.86993 16.7228 7.21793 17.2508 7.78193C17.9108 7.64993 18.5288 7.40993 19.0868 7.07993C18.8708 7.75793 18.4148 8.32193 17.8148 8.68193C18.4028 8.60993 18.9608 8.45393 19.4768 8.22593C19.0868 8.80793 18.5948 9.31793 18.0308 9.72593C18.0368 9.84593 18.0368 9.97193 18.0368 10.0979Z" fill="black" fill-opacity="0.7"/>
</g>
<defs>
<clipPath id="clip0_3498_433">
<rect width="24" height="24" fill="white" transform="translate(0.000976562)"/>
</clipPath>
</defs>
</svg>
