<svg width="35" height="24" viewBox="0 0 35 24" fill="none" xmlns="http://www.w3.org/2000/svg">
<g clip-path="url(#clip0_3498_439)">
<path d="M33.5852 3.74788C33.3881 3.01992 33.003 2.35661 32.4685 1.82457C31.934 1.29254 31.2689 0.910504 30.54 0.716839C27.8646 0 17.143 0 17.143 0C17.143 0 6.41866 0 3.74886 0.716839C3.02233 0.912143 2.35989 1.29496 1.82791 1.82694C1.29594 2.35891 0.91312 3.02135 0.717816 3.74788C0.000976562 6.42051 0.000976562 12 0.000976562 12C0.000976562 12 0.000976562 17.5795 0.717816 20.2521C0.91312 20.9786 1.29594 21.6411 1.82791 22.1731C2.35989 22.705 3.02233 23.0879 3.74886 23.2832C6.42148 23.9887 17.143 23.9887 17.143 23.9887C17.143 23.9887 27.8674 23.9887 30.54 23.2719C31.2675 23.0792 31.9317 22.6989 32.4661 22.1689C33.0005 21.639 33.3864 20.978 33.5852 20.2521C34.2992 17.5795 34.2992 12 34.2992 12C34.2992 12 34.2851 6.42051 33.5852 3.74788ZM13.7141 17.1421V6.85795L22.6237 12L13.7141 17.1421Z" fill="black" fill-opacity="0.7"/>
</g>
<defs>
<clipPath id="clip0_3498_439">
<rect width="34.2841" height="24" fill="white" transform="translate(0.000976562)"/>
</clipPath>
</defs>
</svg>
